<?xml version="1.0" encoding="utf-8"?>
<!-- Generator: Adobe Illustrator 27.5.0, SVG Export Plug-In . SVG Version: 6.00 Build 0)  -->
<svg version="1.1" xmlns="http://www.w3.org/2000/svg" xmlns:xlink="http://www.w3.org/1999/xlink" x="0px" y="0px"
	 viewBox="0 0 2500 2500" style="enable-background:new 0 0 2500 2500;" xml:space="preserve">
<g id="Background">
	<rect style="fill:#FFFFFF;" width="2500" height="2500"/>
</g>
<g id="Illustration">
	<g id="Rental_vehicle_1_">
		<g>
			<g>
				<g>
					<path d="M1133.171,1889.633h942.439c25.924,0,46.938-20.937,46.938-46.763L2122.49,534.36
						c-0.68-35.043-17.621-55.141-46.885-55.141l-942.44,4.02c-23.299,0-43.157,16.913-46.885,39.929l-0.046,1319.702
						C1086.233,1868.697,1107.248,1889.633,1133.171,1889.633z"/>
					<g>
						<path style="fill:#FFFFFF;" d="M1097.51,1891.963h942.566c25.928,0,46.946-20.931,46.944-46.751l-0.057-1307.99
							c-0.679-35.034-17.624-54.952-46.892-54.952h-942.583c-10.68,0-20.637,3.557-28.649,9.627
							c-11.805,8.942-18.242,23.206-18.242,37.921l-0.031,1315.395C1050.565,1871.032,1071.583,1891.963,1097.51,1891.963z"/>
						<path d="M2040.075,1894.182h-942.566c-13.131,0-25.476-5.093-34.761-14.339c-9.289-9.25-14.404-21.549-14.402-34.63
							l0.03-1315.396c0-15.781,7.149-30.619,19.123-39.689c8.704-6.594,19.073-10.078,29.988-10.078h942.583
							c30.509,0,48.408,20.823,49.113,57.129l0.056,1308.034c0,13.082-5.113,25.38-14.402,34.63
							C2065.553,1889.089,2053.206,1894.182,2040.075,1894.182z M1097.487,484.49c-9.94,0-19.383,3.172-27.308,9.176
							c-10.872,8.235-17.362,21.751-17.362,36.151l-0.03,1315.396c0,11.891,4.649,23.073,13.095,31.484
							c8.448,8.411,19.68,13.045,31.627,13.045h942.566c11.95,0,23.182-4.634,31.63-13.045c8.446-8.411,13.095-19.591,13.095-31.484
							l-0.056-1307.991c-0.659-33.989-16.523-52.732-44.672-52.732H1097.487z"/>
					</g>
				</g>
				<g>
					<g>
						<path style="fill:#FFFFFF;" d="M1361.467,593.388h438.402c11.33,0,20.515-9.185,20.515-20.515V470.448
							c0-11.33-9.185-20.515-20.515-20.515h-438.402c-11.33,0-20.515,9.185-20.515,20.515v102.425
							C1340.953,584.203,1350.138,593.388,1361.467,593.388z"/>
						<path d="M1799.87,595.609h-438.402c-12.535,0-22.735-10.2-22.735-22.735V470.448c0-12.535,10.2-22.735,22.735-22.735h438.402
							c12.535,0,22.735,10.2,22.735,22.735v102.426C1822.605,585.409,1812.405,595.609,1799.87,595.609z M1361.468,452.154
							c-10.087,0-18.294,8.207-18.294,18.294v102.426c0,10.087,8.207,18.294,18.294,18.294h438.402
							c10.087,0,18.294-8.207,18.294-18.294V470.448c0-10.087-8.207-18.294-18.294-18.294H1361.468z"/>
					</g>
					<g>
						<path style="fill:#FFFFFF;" d="M1578.961,337.221c-45.333,0-81.904,36.969-81.904,82.573v123.758
							c0,11.125,8.965,20.143,20.024,20.143h123.762c11.059,0,20.024-9.018,20.024-20.143V419.794
							C1660.866,374.19,1624.295,337.221,1578.961,337.221z M1583.541,450.318c-21.814,2.766-40.157-15.689-37.407-37.632
							c1.874-14.95,13.876-27.023,28.738-28.906c21.812-2.764,40.154,15.688,37.405,37.63
							C1610.404,436.361,1598.403,448.434,1583.541,450.318z"/>
						<path d="M1640.842,565.916h-123.76c-12.266,0-22.245-10.033-22.245-22.364V419.793c0-46.756,37.738-84.793,84.125-84.793
							c46.387,0,84.125,38.037,84.125,84.793v123.758C1663.087,555.883,1653.108,565.916,1640.842,565.916z M1578.961,339.441
							c-43.937,0-79.684,36.047-79.684,80.352v123.758c0,9.883,7.986,17.924,17.804,17.924h123.76
							c9.818,0,17.804-8.04,17.804-17.924V419.793C1658.646,375.487,1622.898,339.441,1578.961,339.441z M1579.222,452.813
							c-9.398,0-18.344-3.662-25.077-10.386c-7.895-7.884-11.616-18.823-10.213-30.016c1.988-15.868,14.884-28.833,30.66-30.832
							c11.033-1.401,21.848,2.279,29.672,10.092c7.895,7.882,11.618,18.823,10.217,30.016c-1.988,15.868-14.884,28.835-30.66,30.836
							C1582.281,452.717,1580.746,452.813,1579.222,452.813z M1583.541,450.319h0.022H1583.541z M1579.18,385.728
							c-1.334,0-2.68,0.085-4.029,0.256c-13.797,1.748-25.073,13.092-26.814,26.976c-1.232,9.823,2.03,19.418,8.945,26.324
							c6.848,6.837,16.323,10.061,25.979,8.832c13.797-1.75,25.075-13.097,26.814-26.981c1.229-9.823-2.032-19.418-8.949-26.322
							C1595.237,388.931,1587.407,385.728,1579.18,385.728z"/>
					</g>
				</g>
			</g>
			<g>
				<g>
					<g>
						<path style="fill:#FFFFFF;" d="M1972.297,836.049c0,3.937-4.376,13.124-11.376,13.124c-6.998,0-45.058,0-52.059,0
							c-7,0-14-4.811-23.843-4.811c-9.843,0-221.581,0-238.861,0c-17.28,0-43.091,0-49.325,0c-6.234,0-21.108-3.937-27.671-8.313
							c-6.562-4.376-7.218-5.469-7.218-8.313c0-2.843,0-14.654,0-17.279c0-2.625,7.875-5.467,7.875-10.061s0-18.812,0-25.374
							c0-6.562,59.06-48.56,77.871-53.153c18.811-4.594,101.276-5.031,123.368-3.063c22.092,1.969,69.558,25.374,99.525,47.466
							c32.156,0,66.714,8.078,81.807,17.163c15.093,9.086,19.907,24.616,19.907,31.178
							C1972.297,821.175,1972.297,836.049,1972.297,836.049z"/>
						<path d="M1670.632,846.582h-73.8c-1.396,0-3.196-0.18-5.349-0.538c-0.932-0.154-1.665-0.883-1.826-1.813
							c-0.412-2.4-0.622-4.822-0.622-7.199c0-23.297,18.951-42.248,42.248-42.248c23.297,0,42.25,18.951,42.25,42.248
							c0,2.559-0.241,5.161-0.718,7.732C1672.621,845.818,1671.703,846.582,1670.632,846.582z M1593.795,841.9
							c1.201,0.158,2.236,0.241,3.038,0.241h71.909c0.234-1.709,0.351-3.419,0.351-5.109c0-20.846-16.961-37.807-37.809-37.807
							c-20.847,0-37.807,16.961-37.807,37.807C1593.476,838.639,1593.582,840.272,1593.795,841.9z"/>
						<path d="M1927.982,851.393h-19.12c-3.545,0-6.945-1.069-10.547-2.203c-4.079-1.281-8.296-2.609-13.296-2.609h-34.535
							c-1.071,0-1.988-0.763-2.183-1.817c-0.477-2.572-0.718-5.174-0.718-7.732c0-23.297,18.953-42.248,42.25-42.248
							s42.248,18.951,42.248,42.248c0,4.363-0.668,8.673-1.982,12.813C1929.806,850.767,1928.949,851.393,1927.982,851.393z
							 M1852.374,842.141h32.644c5.681,0,10.434,1.494,14.63,2.815c3.406,1.071,6.351,1.997,9.213,1.997h17.459
							c0.876-3.227,1.318-6.557,1.318-9.92c0-20.846-16.961-37.807-37.807-37.807c-20.849,0-37.809,16.961-37.809,37.807
							C1852.023,838.721,1852.14,840.432,1852.374,842.141z"/>
						<path d="M1947.689,792.124c2.226,0.611,4.175,1.967,5.521,3.842c1.037,1.445,2.125,3.113,2.49,4.209
							c0.765,2.297,0,4.922-3.172,4.922c-3.172,0-15.64,0-18.593,0c-2.953,0-8.42-4.483-11.484-8.092
							c-3.062-3.609-7.655-9.515-6.343-10.281C1917.333,786.009,1932.193,787.868,1947.689,792.124z"/>
						<path d="M1951.282,829.815c1.095-2.174,3.746-3.937,5.921-3.937h15.093c0,5.357,0,10.171,0,10.171
							c0,1.085-0.345,2.575-0.974,4.156h-21.337c-2.175,0-3.05-1.762-1.955-3.937L1951.282,829.815z"/>
						<path d="M1837.028,764.635c1.912,1.494,4.046,5.578,0,5.796c-4.047,0.219-82.793-2.843-86.512-2.898s-4.812-2.243-5.468-4.758
							c-0.656-2.515-5.25-25.483-5.469-27.451c-0.219-1.969-0.218-3.828,3.172-3.828s29.53,0.985,44.184,5.687
							C1801.591,741.886,1821.059,752.167,1837.028,764.635z"/>
						<path d="M1729.845,735.543c0,0,0.984,26.029,0.984,27.342c0,1.312-0.656,3.5-3.171,3.5s-82.136-1.859-85.417-1.969
							c-3.281-0.11-4.812-1.203-4.265-3.5c0.547-2.297,18.375-23.951,33.03-27.779c14.655-3.828,52.825-1.641,54.684-1.641
							C1727.549,731.497,1729.722,732.276,1729.845,735.543z"/>
						<path d="M1628.246,731.264c4.619,1.327,10.266,9.594,5.406,12.354c-3.621,2.057-15.202,11.812-19.796,16.077
							c-4.594,4.265-7.656,5.578-10.937,5.578c-1.953,0-16.535,0-22.627,0C1591.403,756.243,1613.735,739.845,1628.246,731.264z"/>
						<path d="M1569.819,800.395c0-4.18,0-16.307,0-23.406c4.634,0,16.51,0,18.702,0c2.734,0,4.156,1.038,2.734,4.949
							c-1.422,3.91-8.421,14.41-10.39,15.94c-1.969,1.533-3.718,2.735-6.234,2.735c-1.112,0-3.035,0-4.836,0
							C1569.8,800.539,1569.819,800.469,1569.819,800.395z"/>
						<path d="M1908.86,851.393c-3.539,0-6.963-1.076-10.545-2.203c-4.079-1.281-8.298-2.609-13.296-2.609h-288.186
							c-6.932,0-22.193-4.213-28.902-8.686c-6.557-4.374-8.207-6.026-8.207-10.159v-17.28c0-2.196,1.921-3.736,3.955-5.367
							c1.745-1.401,3.92-3.144,3.92-4.695V775.02c0-9.222,62.936-51.249,79.563-55.31c18.899-4.612,101.665-5.113,124.092-3.116
							c18.351,1.635,51.214,16.98,75.641,31.465c15.942,9.454,33.486,15.473,52.146,17.891c22.481,2.912,43.363,8.884,54.493,15.584
							c15.287,9.2,20.983,25.172,20.983,33.078v21.436c0,3.586-2.557,9.493-6.685,12.782c-2.743,2.186-5.87,2.995-9.031,2.346
							l-47.175-0.015C1910.694,851.322,1909.772,851.393,1908.86,851.393z M1564.165,810.633v17.104c0,1.728,0,2.309,6.229,6.464
							c5.907,3.94,20.361,7.94,26.439,7.94h288.186c5.681,0,10.434,1.494,14.63,2.815c4.204,1.323,7.841,2.463,11.373,1.802
							c0.134-0.024,0.271-0.037,0.408-0.037l47.608,0.015c0.167,0,0.334,0.019,0.494,0.056c1.932,0.438,3.786-0.041,5.534-1.433
							c3.105-2.474,5.011-7.091,5.011-9.311v-21.436c0-5.852-4.603-20.71-18.832-29.275c-10.64-6.403-30.862-12.145-52.775-14.981
							c-19.261-2.498-37.376-8.712-53.838-18.477c-28.837-17.097-58.482-29.5-73.771-30.862
							c-22.226-1.98-104.061-1.529-122.644,3.008c-18.507,4.521-74.372,44.776-76.196,51.182l0.02,25.19
							c0,3.68-3.096,6.165-5.583,8.159C1565.652,809.2,1564.459,810.156,1564.165,810.633z"/>
						<g>
							
								<ellipse transform="matrix(0.9871 -0.1602 0.1602 0.9871 -109.6752 313.5255)" cx="1889.832" cy="837.033" rx="34.451" ry="34.451"/>
							
								<ellipse transform="matrix(0.3827 -0.9239 0.9239 0.3827 393.3065 2262.6904)" style="fill:#FFFFFF;" cx="1889.832" cy="837.033" rx="24.376" ry="24.376"/>
						</g>
						<g>
							
								<ellipse transform="matrix(0.9732 -0.2298 0.2298 0.9732 -148.6721 397.1832)" cx="1631.284" cy="837.033" rx="34.451" ry="34.451"/>
							
								<ellipse transform="matrix(0.3827 -0.9239 0.9239 0.3827 233.701 2023.8239)" style="fill:#FFFFFF;" cx="1631.284" cy="837.033" rx="24.376" ry="24.376"/>
						</g>
					</g>
					<path d="M1976.399,922.693h-418.558c-14.916,0-27.052-12.136-27.052-27.052V693.538c0-14.916,12.136-27.05,27.052-27.05
						h418.558c14.916,0,27.052,12.134,27.052,27.05v202.103C2003.452,910.557,1991.315,922.693,1976.399,922.693z M1557.842,670.929
						c-12.468,0-22.611,10.144-22.611,22.609v202.103c0,12.468,10.144,22.612,22.611,22.612h418.558
						c12.468,0,22.612-10.143,22.612-22.612V693.538c0-12.466-10.144-22.609-22.612-22.609H1557.842z"/>
				</g>
				<g>
					<path d="M1402.922,1022.32h-152.016c-10.261,0-18.607-8.348-18.607-18.609c0-10.261,8.346-18.607,18.607-18.607h145.969
						c1.227,0,2.22,0.993,2.22,2.22s-0.993,2.22-2.22,2.22h-145.969c-7.81,0-14.166,6.355-14.166,14.166
						c0,7.813,6.355,14.168,14.166,14.168h152.016c1.227,0,2.22,0.993,2.22,2.22
						C1405.142,1021.326,1404.149,1022.32,1402.922,1022.32z"/>
					<path d="M1816.933,1022.32h-253.386c-1.227,0-2.22-0.993-2.22-2.22c0-1.227,0.993-2.22,2.22-2.22h253.386
						c7.81,0,14.166-6.355,14.166-14.168c0-7.81-6.355-14.166-14.166-14.166h-251.498c-1.227,0-2.22-0.993-2.22-2.22
						s0.993-2.22,2.22-2.22h251.498c10.261,0,18.607,8.346,18.607,18.607C1835.539,1013.971,1827.193,1022.32,1816.933,1022.32z"/>
					<path d="M1816.933,1099.456h-118.34c-10.261,0-18.609-8.346-18.609-18.607c0-10.261,8.348-18.609,18.609-18.609h118.34
						c10.261,0,18.607,8.348,18.607,18.609C1835.539,1091.11,1827.193,1099.456,1816.933,1099.456z M1698.593,1066.682
						c-7.813,0-14.168,6.355-14.168,14.168c0,7.81,6.355,14.166,14.168,14.166h118.34c7.81,0,14.166-6.355,14.166-14.166
						c0-7.813-6.355-14.168-14.166-14.168H1698.593z"/>
					<path d="M1816.933,1182.638h-566.027c-10.261,0-18.607-8.348-18.607-18.609c0-10.261,8.346-18.607,18.607-18.607h566.027
						c10.261,0,18.607,8.346,18.607,18.607C1835.539,1174.29,1827.193,1182.638,1816.933,1182.638z M1250.906,1149.864
						c-7.81,0-14.166,6.355-14.166,14.166c0,7.813,6.355,14.168,14.166,14.168h566.027c7.81,0,14.166-6.355,14.166-14.168
						c0-7.81-6.355-14.166-14.166-14.166H1250.906z"/>
					<path d="M1816.933,1259.777h-59.022c-10.261,0-18.609-8.348-18.609-18.609s8.348-18.607,18.609-18.607h59.022
						c10.261,0,18.607,8.346,18.607,18.607S1827.193,1259.777,1816.933,1259.777z M1757.91,1227.002
						c-7.813,0-14.168,6.356-14.168,14.166c0,7.813,6.355,14.168,14.168,14.168h59.022c7.81,0,14.166-6.355,14.166-14.168
						c0-7.81-6.355-14.166-14.166-14.166H1757.91z"/>
					<path d="M1816.933,1338.8h-102.899c-10.261,0-18.609-8.346-18.609-18.607s8.348-18.609,18.609-18.609h102.899
						c10.261,0,18.607,8.348,18.607,18.609S1827.193,1338.8,1816.933,1338.8z M1714.034,1306.026
						c-7.813,0-14.168,6.355-14.168,14.168c0,7.81,6.355,14.166,14.168,14.166h102.899c7.81,0,14.166-6.355,14.166-14.166
						c0-7.813-6.355-14.168-14.166-14.168H1714.034z"/>
					<path d="M1464.536,700.6h-207.779c-10.261,0-18.609-8.346-18.609-18.607s8.348-18.609,18.609-18.609h207.779
						c10.26,0,18.609,8.348,18.609,18.609S1474.796,700.6,1464.536,700.6z M1256.756,667.826c-7.813,0-14.168,6.355-14.168,14.168
						c0,7.81,6.355,14.166,14.168,14.166h207.779c7.813,0,14.168-6.355,14.168-14.166c0-7.813-6.355-14.168-14.168-14.168H1256.756z
						"/>
					<path d="M1464.536,770.046h-207.779c-10.261,0-18.609-8.348-18.609-18.609c0-10.261,8.348-18.607,18.609-18.607h207.779
						c10.26,0,18.609,8.346,18.609,18.607C1483.144,761.698,1474.796,770.046,1464.536,770.046z M1256.756,737.271
						c-7.813,0-14.168,6.355-14.168,14.166c0,7.813,6.355,14.168,14.168,14.168h207.779c7.813,0,14.168-6.355,14.168-14.168
						c0-7.81-6.355-14.166-14.168-14.166H1256.756z"/>
					<path d="M1370.668,839.489h-113.912c-10.261,0-18.609-8.346-18.609-18.607s8.348-18.609,18.609-18.609h113.912
						c10.261,0,18.609,8.348,18.609,18.609S1380.929,839.489,1370.668,839.489z M1256.756,806.715
						c-7.813,0-14.168,6.355-14.168,14.168c0,7.81,6.355,14.166,14.168,14.166h113.912c7.813,0,14.168-6.355,14.168-14.166
						c0-7.813-6.355-14.168-14.168-14.168H1256.756z"/>
				</g>
				<g>
					<g>
						<path d="M1979.934,1096.761h-64.623c-12.969,0-23.518-10.549-23.518-23.518v-64.623c0-12.967,10.549-23.516,23.518-23.516
							h64.623c12.969,0,23.518,10.549,23.518,23.516v64.623C2003.452,1086.212,1992.902,1096.761,1979.934,1096.761z
							 M1915.311,989.545c-10.519,0-19.077,8.556-19.077,19.075v64.623c0,10.519,8.558,19.077,19.077,19.077h64.623
							c10.519,0,19.077-8.558,19.077-19.077v-64.623c0-10.519-8.558-19.075-19.077-19.075H1915.311z"/>
						<path d="M1938.776,1065.094c-0.325,0-0.653-0.03-0.98-0.091c-1.904-0.358-3.461-1.724-4.063-3.563l-10.074-26.272
							c-0.44-1.147,0.132-2.431,1.277-2.869c1.149-0.436,2.429,0.132,2.869,1.277l10.111,26.376c0.176,0.527,0.512,0.648,0.7,0.685
							c0.171,0.032,0.49,0.043,0.761-0.226l27.833-44.431c0.655-1.039,2.025-1.353,3.062-0.703c1.039,0.651,1.353,2.021,0.703,3.062
							l-27.93,44.586c-0.052,0.08-0.106,0.158-0.167,0.23C1941.858,1064.396,1940.346,1065.094,1938.776,1065.094z"/>
					</g>
					<g>
						<path d="M1979.934,1255.956h-64.623c-12.969,0-23.518-10.549-23.518-23.518v-64.623c0-12.969,10.549-23.518,23.518-23.518
							h64.623c12.969,0,23.518,10.549,23.518,23.518v64.623C2003.452,1245.407,1992.902,1255.956,1979.934,1255.956z
							 M1915.311,1148.738c-10.519,0-19.077,8.558-19.077,19.077v64.623c0,10.519,8.558,19.077,19.077,19.077h64.623
							c10.519,0,19.077-8.559,19.077-19.077v-64.623c0-10.519-8.558-19.077-19.077-19.077H1915.311z"/>
						<path d="M1938.44,1226.016c-0.338,0-0.679-0.03-1.019-0.095c-1.975-0.371-3.593-1.789-4.22-3.699l-10.746-28.024
							c-0.44-1.147,0.132-2.431,1.277-2.869c1.147-0.438,2.431,0.135,2.869,1.277l10.783,28.128c0.215,0.646,0.67,0.787,0.859,0.822
							c0.169,0.035,0.603,0.065,0.954-0.293l29.689-47.396c0.655-1.039,2.025-1.353,3.062-0.703
							c1.039,0.651,1.353,2.021,0.703,3.062l-29.784,47.547c-0.052,0.08-0.106,0.158-0.167,0.232
							C1941.641,1225.292,1940.071,1226.016,1938.44,1226.016z"/>
					</g>
					<g>
						<path d="M1979.934,1415.152h-64.623c-12.969,0-23.518-10.549-23.518-23.518v-64.623c0-12.969,10.549-23.518,23.518-23.518
							h64.623c12.969,0,23.518,10.549,23.518,23.518v64.623C2003.452,1404.603,1992.902,1415.152,1979.934,1415.152z
							 M1915.311,1307.934c-10.519,0-19.077,8.558-19.077,19.077v64.623c0,10.519,8.558,19.077,19.077,19.077h64.623
							c10.519,0,19.077-8.558,19.077-19.077v-64.623c0-10.519-8.558-19.077-19.077-19.077H1915.311z"/>
						<path d="M1938.364,1385.597c-0.34,0-0.685-0.03-1.028-0.095c-1.993-0.375-3.623-1.804-4.254-3.732l-10.898-28.416
							c-0.44-1.145,0.132-2.431,1.277-2.869c1.147-0.436,2.431,0.132,2.869,1.277l10.935,28.52c0.223,0.672,0.696,0.818,0.891,0.854
							c0.189,0.039,0.631,0.067,1-0.308l30.105-48.059c0.655-1.036,2.025-1.351,3.062-0.703c1.039,0.651,1.353,2.021,0.703,3.062
							l-30.201,48.209c-0.05,0.08-0.106,0.156-0.167,0.23C1941.591,1384.867,1940.01,1385.597,1938.364,1385.597z"/>
					</g>
				</g>
			</g>
			<g>
				<g>
					<g>
						<g>
							<path style="fill:#FFFFFF;" d="M1081.444,802.529l8.673,37.292c0.6,2.581,2.234,4.802,4.518,6.144l16.87,9.908
								c2.285,1.342,3.918,3.563,4.518,6.144l4.459,19.173c0.625,2.687,0.072,5.513-1.52,7.765l-10.603,15.007
								c-1.592,2.253-2.145,5.079-1.52,7.765l3.028,13.02c1.209,5.198,6.403,8.432,11.601,7.223
								c5.198-1.209,10.392,2.025,11.602,7.223l2.734,11.756c1.209,5.198-2.025,10.392-7.223,11.601
								c-5.198,1.209-8.432,6.403-7.224,11.601l2.883,12.395c0.639,2.749,2.448,5.081,4.951,6.383l15.713,8.177
								c2.503,1.303,4.312,3.635,4.951,6.383l4.739,20.375c0.615,2.643,0.09,5.423-1.447,7.66l-10.674,15.539
								c-1.537,2.237-2.062,5.017-1.447,7.66l4.113,17.684c0.795,3.419,3.382,6.139,6.758,7.103l31.579,9.021
								c3.222,0.92,6.69,0.106,9.166-2.152l24.046-21.93c2.583-2.356,3.693-5.924,2.901-9.329l-63.701-273.906L1081.444,802.529z"/>
							<path d="M1186.161,1095.135c-1.097,0-2.203-0.154-3.294-0.464l-31.58-9.022c-4.148-1.184-7.333-4.53-8.311-8.734
								l-4.111-17.685c-0.757-3.242-0.108-6.676,1.778-9.422l10.675-15.538c1.18-1.717,1.585-3.87,1.114-5.9l-4.738-20.376
								c-0.494-2.121-1.884-3.912-3.814-4.914l-15.714-8.181c-3.081-1.6-5.302-4.46-6.089-7.847l-2.882-12.396
								c-0.72-3.092-0.193-6.277,1.485-8.973c1.678-2.695,4.304-4.575,7.396-5.293c3.998-0.932,6.494-4.94,5.564-8.936
								l-2.734-11.757c-0.451-1.936-1.629-3.582-3.315-4.632c-1.689-1.054-3.682-1.381-5.62-0.932
								c-3.09,0.722-6.28,0.191-8.973-1.487c-2.695-1.678-4.575-4.304-5.293-7.396l-3.029-13.019c-0.768-3.3-0.087-6.78,1.869-9.549
								l10.603-15.007c1.223-1.732,1.65-3.914,1.171-5.982l-4.458-19.172c-0.462-1.977-1.73-3.703-3.482-4.731l-16.87-9.909
								c-2.795-1.641-4.82-4.395-5.555-7.555l-8.673-37.291c-0.278-1.195,0.464-2.387,1.659-2.665
								c1.188-0.288,2.387,0.464,2.665,1.659l8.673,37.291c0.462,1.977,1.73,3.703,3.482,4.731l16.87,9.909
								c2.795,1.641,4.82,4.395,5.555,7.555l4.458,19.172c0.768,3.302,0.087,6.785-1.869,9.552l-10.603,15.007
								c-1.223,1.733-1.65,3.914-1.171,5.98l3.029,13.019c0.451,1.936,1.628,3.582,3.315,4.634c1.687,1.049,3.682,1.379,5.62,0.932
								c3.099-0.724,6.279-0.193,8.973,1.485c2.695,1.678,4.575,4.304,5.293,7.396l2.734,11.757
								c1.485,6.381-2.498,12.78-8.881,14.266c-1.936,0.451-3.582,1.629-4.632,3.315c-1.052,1.689-1.383,3.684-0.932,5.62
								l2.882,12.396c0.494,2.121,1.884,3.912,3.814,4.914l15.714,8.181c3.081,1.6,5.302,4.46,6.089,7.847l4.738,20.376
								c0.755,3.242,0.106,6.676-1.778,9.419l-10.675,15.541c-1.182,1.719-1.587,3.868-1.115,5.9l4.111,17.685
								c0.614,2.632,2.609,4.729,5.206,5.469l31.58,9.022c2.498,0.716,5.139,0.098,7.06-1.657l24.045-21.931
								c1.988-1.811,2.843-4.564,2.236-7.186l-63.702-273.905c-0.277-1.195,0.464-2.387,1.659-2.665
								c1.19-0.293,2.387,0.464,2.665,1.659l63.702,273.905c0.974,4.185-0.395,8.58-3.567,11.475l-24.045,21.928
								C1191.91,1094.055,1189.076,1095.135,1186.161,1095.135z"/>
						</g>
						<path d="M1128.049,823.508l52.439,225.478c1.044,4.49,5.53,7.282,10.019,6.238s7.282-5.53,6.238-10.019l-52.439-225.478
							c-1.044-4.49-5.53-7.282-10.019-6.238C1129.798,814.533,1127.005,819.019,1128.049,823.508z"/>
					</g>
					<g>
						<path style="fill:#FFFFFF;" d="M1099.712,607.249l-46.389,10.789c-42.835,9.962-70.668,51.982-60.706,94.818l16.8,72.236
							c3.959,17.024,22.136,28.322,39.16,24.363l139.859-32.527c17.024-3.959,26.879-21.777,22.92-38.801l-16.8-72.236
							C1184.595,623.055,1142.548,597.287,1099.712,607.249z M1127.069,666.571c1.044,4.488-0.903,9.388-5.39,10.431l-57.287,13.323
							c-4.487,1.044-9.867-2.153-10.911-6.64l-1.354-5.822c-2.626-11.292,5.333-22.004,16.625-24.63l32.647-7.593
							c11.292-2.626,21.69,3.817,24.316,15.109L1127.069,666.571z"/>
						<path d="M1041.693,812.454c-6.475,0-13.036-1.863-18.767-5.427c-7.94-4.937-13.652-12.75-15.671-21.432l-16.8-72.236
							c-10.096-43.408,17.882-87.139,62.366-97.482l46.387-10.79c21.315-4.961,43.133-1.481,61.418,9.794
							c18.329,11.301,31.146,29.238,36.092,50.507l16.8,72.236c4.348,18.702-6.678,37.302-24.58,41.465l-139.858,32.525
							C1046.667,812.177,1044.187,812.454,1041.693,812.454z M1100.215,609.41l-46.387,10.79
							c-20.276,4.716-37.604,16.835-48.792,34.125c-11.267,17.412-14.907,38.02-10.256,58.027l16.8,72.236
							c1.754,7.544,6.746,14.346,13.691,18.667c6.945,4.317,15.256,5.785,22.804,4.035l139.858-32.525
							c15.517-3.61,25.055-19.821,21.263-36.135l-16.8-72.236c-4.677-20.107-16.785-37.059-34.099-47.734
							C1141.014,608.005,1120.389,604.725,1100.215,609.41z M1062.629,692.744c-2.071,0-4.215-0.607-6.132-1.763
							c-2.661-1.609-4.549-4.083-5.178-6.793l-1.353-5.822c-1.394-5.993-0.176-12.149,3.432-17.336
							c3.48-5.005,8.756-8.543,14.851-9.959l32.647-7.591c12.485-2.917,24.084,4.304,26.981,16.768l1.353,5.822
							c0.642,2.749,0.364,5.579-0.778,7.967c-1.275,2.665-3.502,4.486-6.269,5.128l-57.288,13.325
							C1064.16,692.66,1063.401,692.744,1062.629,692.744z M1106.468,647.268c-1.483,0-3.012,0.176-4.566,0.536l-32.647,7.591
							c-4.95,1.151-9.4,4.131-12.212,8.173c-2.882,4.141-3.857,9.04-2.754,13.793l1.353,5.822c0.36,1.55,1.509,3.005,3.151,3.998
							c1.648,0.995,3.506,1.355,5.096,0.984l57.288-13.324c1.83-0.427,2.786-1.715,3.268-2.719c0.7-1.461,0.867-3.3,0.462-5.046
							l-1.353-5.822C1121.549,652.643,1114.706,647.268,1106.468,647.268z"/>
					</g>
				</g>
				<g>
					<path style="fill:#FFFFFF;" d="M1022.958,632.063c-17.825-19.27-27.953-44.981-27.953-71.285
						c0-59.978,51.042-108.258,111.97-103.685c50.84,3.816,91.884,44.86,95.7,95.7c4.573,60.928-43.707,111.97-103.685,111.97
						c-12.409,0-24.55-2.164-36.088-6.433c0,0-0.67-2.898,5.849-5.096l31.554-7.338l13.636-3.563
						c42.087-7.661,71.834-46.278,67.574-89.879c-3.914-40.067-36.841-71.846-77.014-74.457
						c-48.212-3.134-88.443,35.199-88.443,82.752c0,22.677,9.662,45.014,25.969,60.784l-0.71,0.28
						C1034.767,624.391,1028.592,627.84,1022.958,632.063z"/>
					<path d="M1115.007,644.351c-1.041,0-1.969-0.735-2.177-1.795c-0.234-1.203,0.551-2.37,1.754-2.604
						c37.731-7.375,65.118-40.685,65.118-79.203c0-44.505-36.207-80.712-80.712-80.712c-44.503,0-80.71,36.207-80.71,80.712
						c0,17.893,5.685,34.789,16.44,48.857c0.746,0.974,0.559,2.368-0.414,3.112c-0.974,0.746-2.368,0.562-3.112-0.414
						c-11.354-14.849-17.355-32.677-17.355-51.555c0-46.953,38.197-85.153,85.151-85.153s85.153,38.2,85.153,85.153
						c0,40.639-28.895,75.781-68.708,83.561C1115.291,644.338,1115.148,644.351,1115.007,644.351z"/>
					<path d="M1098.99,666.984c-7.704,0-15.382-0.826-22.82-2.459c-1.199-0.262-1.956-1.446-1.694-2.643
						c0.262-1.201,1.44-1.958,2.643-1.693c7.127,1.563,14.484,2.355,21.87,2.355c56.112,0,101.765-45.652,101.765-101.765
						s-45.652-101.765-101.765-101.765s-101.765,45.652-101.765,101.765c0,22.562,7.214,43.913,20.864,61.748
						c0.746,0.974,0.559,2.366-0.414,3.112c-0.969,0.746-2.366,0.562-3.112-0.414c-14.248-18.615-21.779-40.899-21.779-64.445
						c0-58.563,47.643-106.206,106.206-106.206s106.205,47.643,106.205,106.206C1205.195,619.341,1157.552,666.984,1098.99,666.984z
						"/>
				</g>
			</g>
		</g>
		<g>
			<path style="fill:#FFFFFF;" d="M2160.513,1818.629l-7.429,17.832c-10.418,25.006-31.106,44.312-56.772,52.978l-104.67,35.344
				H470.376l-91.792-28.146c-24.722-7.581-42.374-29.399-44.627-55.159l-3.863-44.179c-0.541-6.881,0.762-13.782,3.776-19.992
				c3.718-7.661,5.04-16.265,3.794-24.689l-8.162-55.175c-1.637-11.065,4.137-21.903,14.233-26.718l20.945-9.988
				c115.197-54.935,238.546-90.813,365.236-106.235l53.245-6.481l60.648-32.614c338.681-182.126,739.831-207.94,1099.061-70.724
				l222.126,84.846l-12.056,105.575l14.041,72.444c2.528,13.044,3.801,26.301,3.801,39.588v20.147
				C2170.781,1784.909,2167.291,1802.359,2160.513,1818.629z"/>
			<g>
				<path style="fill:#FFFFFF;" d="M1931.614,1493.063c4.132-2.167,3.762-8.201-0.597-9.865l-55.322-21.113
					c-317.615-121.215-747.602-116.535-1052.062,116.904l742.216-25.704c86.162-2.984,172.113-10.399,257.513-22.215
					C1866.642,1525.06,1911.787,1503.463,1931.614,1493.063z"/>
				<path d="M823.634,1581.21c-0.935,0-1.774-0.585-2.09-1.47c-0.325-0.909-0.026-1.926,0.739-2.513
					c142.415-109.194,323.012-175.551,522.267-191.899c178.463-14.63,367.382,11.883,531.936,74.682l55.321,21.113
					c2.847,1.086,4.729,3.651,4.909,6.696c0.18,3.036-1.379,5.798-4.07,7.21c-22.38,11.737-66.297,32.315-108.979,38.239
					c-85.123,11.781-171.839,19.261-257.742,22.234l-742.215,25.706C823.686,1581.21,823.66,1581.21,823.634,1581.21z
					 M1437.965,1385.413c-204.336,0-422.322,51.468-607.427,191.116l735.236-25.463c85.749-2.971,172.312-10.438,257.285-22.195
					c43.581-6.052,89.713-28.433,107.524-37.775c1.143-0.598,1.778-1.726,1.7-3.014c-0.076-1.297-0.846-2.346-2.058-2.808
					l-55.321-21.113C1753.309,1417.756,1599.923,1385.413,1437.965,1385.413z"/>
			</g>
			<g>
				<path style="fill:#FFFFFF;" d="M2030.551,1619.298c0,0-27.851,25.151,122.334,16.391l12.126-106.324
					C2165.011,1529.366,2084.847,1573.355,2030.551,1619.298z"/>
				<path d="M2097.126,1639.769c-42.972,0-66.547-4.491-70.287-13.431c-1.602-3.825,0.644-7.26,2.225-8.686
					c0.017-0.015,0.035-0.032,0.054-0.048c53.842-45.559,134.021-89.743,134.823-90.186c0.729-0.399,1.62-0.36,2.307,0.104
					c0.687,0.462,1.063,1.271,0.967,2.095l-12.125,106.325c-0.121,1.073-0.998,1.902-2.075,1.964
					C2131.731,1639.148,2113.087,1639.769,2097.126,1639.769z M2032.03,1620.956c-0.223,0.217-1.856,1.893-1.084,3.693
					c1.553,3.623,14.823,14.925,119.944,8.931l11.423-100.164C2145.832,1542.713,2078.869,1581.336,2032.03,1620.956z"/>
			</g>
			<path d="M2039.531,1632.297c14.24,4.41,45.771,7.335,113.354,3.393l3.795-33.278c0,0,6.791-43.599-31.512-27.158
				C2082.704,1593.48,2039.531,1632.297,2039.531,1632.297z"/>
			<g>
				<path style="fill:#FFFFFF;" d="M479.731,1877.234l1373.688-26.129l308.428-35.804c-0.43,1.114-0.874,2.223-1.334,3.327
					l-7.429,17.832c-10.418,25.006-31.106,44.296-56.772,52.963l-66.083,22.305c-25.554,8.625-52.343,13.024-79.313,13.024H491.99
					c-14.329,0-28.579-2.135-42.279-6.333l-71.126-21.798c-18.009-5.522-32.266-18.562-39.552-35.233L479.731,1877.234z"/>
				<path d="M1950.917,1926.974H491.99c-14.558,0-29.002-2.164-42.929-6.431l-71.128-21.798
					c-18.346-5.627-33.267-18.919-40.934-36.467c-0.319-0.726-0.223-1.568,0.247-2.207c0.471-0.637,1.24-0.969,2.036-0.889
					l140.552,15.831l1373.544-26.126l308.213-35.788c0.761-0.104,1.535,0.232,2.01,0.846c0.477,0.614,0.596,1.433,0.319,2.157
					c-0.438,1.134-0.889,2.259-1.357,3.383l-7.429,17.833c-10.657,25.582-31.84,45.342-58.112,54.213l-66.085,22.304
					C2005.104,1922.553,1978.182,1926.974,1950.917,1926.974z M342.751,1864.042c7.529,14.602,20.634,25.595,36.482,30.457
					l71.128,21.798c13.504,4.137,27.51,6.236,41.628,6.236h1458.927c26.781,0,53.226-4.343,78.6-12.908l66.085-22.303
					c25.062-8.463,45.266-27.313,55.434-51.715l7.359-17.668l-304.719,35.372l-1373.904,26.144c-0.085,0-0.193-0.002-0.291-0.013
					L342.751,1864.042z"/>
			</g>
			<g>
				<path style="fill:#FFFFFF;" d="M522.386,1650.687c1.613-1.18,0.967-3.726-1.015-3.981c-10.614-1.364-35.519-3.847-62.604-1.492
					c-27.755,2.414-69.516,22.937-87.071,32.144c-4.699,2.464-6.744,8.095-4.739,13.007l1.179,2.888
					c2.346,5.75,7.939,9.509,14.15,9.509h37.442c20.429,0,40.328-6.499,56.818-18.557L522.386,1650.687z"/>
				<path d="M372.064,1677.165c17.764-9.298,59.14-29.555,86.702-31.951c11.016-0.958,21.672-1.115,31.152-0.874l-33.281,23.439
					c-12.961,9.128-27.953,14.959-43.675,16.988l-24.071,3.106c-4.496,0.58-8.975-1.19-11.86-4.687L372.064,1677.165z"/>
				<path d="M419.728,1704.984h-37.443c-7.145,0-13.504-4.276-16.204-10.892l-1.186-2.906c-2.448-5.998,0.033-12.787,5.772-15.796
					l0.369-0.193c16.935-8.864,59.365-29.748,87.538-32.196c27.584-2.396,53.177,0.236,62.899,1.479
					c1.841,0.234,3.328,1.546,3.792,3.344c0.462,1.793-0.206,3.66-1.702,4.753l-45.707,33.421
					C460.868,1698.418,440.767,1704.984,419.728,1704.984z M373.095,1679.13l-0.369,0.193c-3.699,1.941-5.299,6.318-3.721,10.185
					l1.186,2.906c2.014,4.937,6.761,8.129,12.093,8.129h37.443c20.092,0,39.286-6.269,55.51-18.132l45.706-33.421
					c-9.617-1.331-34.834-3.927-61.984-1.566C431.586,1649.806,389.794,1670.39,373.095,1679.13z"/>
			</g>
			<g>
				<path style="fill:#FFFFFF;" d="M1253.343,1610.375l135.51-4.202c14.401-0.446,28.403-4.841,40.477-12.703l7.795-5.076
					l-136.142,4.079C1283.557,1592.996,1266.8,1599.293,1253.343,1610.375z"/>
				<path d="M1253.343,1612.595c-0.921,0-1.752-0.57-2.077-1.438c-0.336-0.889-0.067-1.893,0.666-2.496
					c13.765-11.338,31.161-17.874,48.983-18.407l136.144-4.081c1.056-0.006,1.889,0.607,2.186,1.557
					c0.297,0.95-0.074,1.982-0.906,2.524l-7.795,5.076c-12.42,8.086-26.814,12.605-41.621,13.064l-135.509,4.2
					C1253.389,1612.595,1253.365,1612.595,1253.343,1612.595z M1429.285,1590.851l-128.236,3.844
					c-14.534,0.434-28.765,5.091-40.754,13.242l128.487-3.983c13.997-0.434,27.599-4.703,39.336-12.344L1429.285,1590.851z"/>
			</g>
			<path d="M392.157,1846.485c-0.549,0-1.104-0.039-1.661-0.121c-10.863-1.594-36.584-9.53-40.786-48.684
				c-0.872-8.114,3.853-15.989,11.486-19.153c8.814-3.649,28.854-5.273,44.115-5.993c3.292-0.152,6.52,1.128,8.814,3.517
				c2.255,2.353,3.383,5.551,3.094,8.775c-1.958,21.939-9.974,43.673-14.578,54.675
				C400.848,1843.779,396.682,1846.485,392.157,1846.485z M405.85,1776.962c-0.111,0-0.221,0.002-0.332,0.009
				c-12.203,0.575-33.969,2.075-42.623,5.659c-5.826,2.413-9.432,8.409-8.771,14.578c3.732,34.767,24.795,42.968,37.018,44.763
				c3.122,0.464,6.178-1.258,7.403-4.185c4.504-10.764,12.344-32.011,14.25-53.354c0.178-1.975-0.49-3.86-1.878-5.308
				C409.591,1777.74,407.758,1776.962,405.85,1776.962z"/>
			<path d="M388.771,1843.82c0.701,0.135,1.375,0.249,2.017,0.344c4.151,0.612,8.182-1.647,9.803-5.518
				c4.273-10.208,12.458-32.087,14.417-54.017c0.492-5.506-4.082-10.137-9.603-9.876c-3.551,0.168-7.775,0.407-12.216,0.743
				l0.023,0.187c2.725,21.777,1.463,43.868-3.724,65.192L388.771,1843.82z"/>
			<g>
				<path style="fill:#FFFFFF;" d="M839.115,1845.166c0-107.276-86.965-194.239-194.239-194.239
					c-107.276,0-194.239,86.964-194.239,194.239c0,27.999,5.935,54.608,16.598,78.655l3.142,0.963h351.72
					C833.029,1900.486,839.115,1873.538,839.115,1845.166z"/>
				<path d="M822.096,1927.005H470.376c-0.221,0-0.44-0.033-0.65-0.098l-3.142-0.963c-0.616-0.189-1.119-0.635-1.379-1.223
					c-11.139-25.123-16.787-51.889-16.787-79.554c0-108.328,88.13-196.461,196.458-196.461s196.461,88.132,196.461,196.461
					c0,28.047-5.792,55.141-17.214,80.528C823.762,1926.493,822.97,1927.005,822.096,1927.005z M470.708,1922.564h349.947
					c10.777-24.433,16.241-50.464,16.241-77.397c0-105.88-86.14-192.02-192.02-192.02c-105.878,0-192.018,86.14-192.018,192.02
					c0,26.701,5.382,52.546,15.998,76.829L470.708,1922.564z"/>
			</g>
			<g>
				<path style="fill:#FFFFFF;" d="M2008.01,1845.166c0-107.319-87-194.318-194.319-194.318
					c-107.319,0-194.318,86.999-194.318,194.318c0,28.371,6.083,55.319,17.012,79.617h354.614
					C2001.926,1900.485,2008.01,1873.537,2008.01,1845.166z"/>
				<path d="M1990.999,1927.005h-354.615c-0.874,0-1.667-0.512-2.025-1.31c-11.416-25.385-17.206-52.478-17.206-80.528
					c0-108.372,88.167-196.539,196.539-196.539s196.539,88.167,196.539,196.539c0,28.045-5.79,55.139-17.206,80.528
					C1992.666,1926.493,1991.873,1927.005,1990.999,1927.005z M1637.825,1922.564h351.731
					c10.772-24.435,16.232-50.466,16.232-77.397c0-105.924-86.174-192.098-192.098-192.098s-192.098,86.174-192.098,192.098
					C1621.593,1872.102,1627.053,1898.133,1637.825,1922.564z"/>
			</g>
			<g>
				<path style="fill:#FFFFFF;" d="M898.679,1558.606l29.572-35.634c4.161-5.013,10.337-7.914,16.852-7.914h26.324
					c11.165,0,20.542,8.399,21.767,19.496l1.966,17.808c0.532,4.821-0.551,9.683-3.081,13.822
					c-3.922,6.417-10.861,10.374-18.381,10.478c-28.219,0.388-95.949,1.094-94.481-1.109c1.462-2.193,11.766-10.314,16.053-13.647
					C896.525,1560.932,897.664,1559.828,898.679,1558.606z"/>
				<g>
					<path style="fill:#FFFFFF;" d="M995.16,1552.363l-1.966-17.808c-1.225-11.097-10.602-19.496-21.767-19.496h-26.324
						c-6.515,0-12.691,2.901-16.852,7.914l-29.572,35.634C898.679,1558.606,953.976,1551.557,995.16,1552.363z"/>
					<path d="M898.678,1560.826c-0.802,0-1.552-0.436-1.945-1.151c-0.44-0.798-0.347-1.785,0.236-2.487l29.574-35.632
						c4.595-5.54,11.36-8.717,18.559-8.717h26.324c12.316,0,22.625,9.231,23.975,21.473l1.967,17.809
						c0.069,0.633-0.137,1.268-0.568,1.741c-0.432,0.471-1.069,0.698-1.683,0.722c-40.524-0.785-95.607,6.156-96.16,6.225
						C898.865,1560.819,898.771,1560.826,898.678,1560.826z M945.102,1517.279c-5.874,0-11.393,2.591-15.142,7.112l-26.02,31.35
						c14.71-1.693,55.8-6.008,88.737-5.638l-1.691-15.306c-1.102-9.987-9.512-17.518-19.561-17.518H945.102z"/>
				</g>
				<g>
					<path style="fill:#FFFFFF;" d="M898.679,1558.606l29.572-35.634c4.161-5.013,10.337-7.914,16.852-7.914h26.324
						c11.165,0,20.542,8.399,21.767,19.496l1.966,17.808c0.532,4.821-0.551,9.683-3.081,13.822
						c-3.922,6.417-10.861,10.374-18.381,10.478c-28.219,0.388-95.949,1.094-94.481-1.109c1.462-2.193,11.766-10.314,16.053-13.647
						C896.525,1560.932,897.664,1559.828,898.679,1558.606z"/>
					<path d="M919.971,1579.337c-41.307,0-42.016-1.316-42.714-2.598c-0.392-0.724-0.345-1.73,0.113-2.416
						c1.203-1.806,6.767-6.572,16.536-14.168c1.123-0.874,2.153-1.871,3.064-2.969l29.574-35.632
						c4.595-5.54,11.36-8.717,18.559-8.717h26.324c12.316,0,22.625,9.231,23.975,21.473l1.967,17.809
						c0.581,5.282-0.624,10.688-3.393,15.224c-4.348,7.11-11.915,11.425-20.246,11.54
						C950.72,1579.2,933.246,1579.337,919.971,1579.337z M883.662,1574.219c10.586,0.768,43.521,0.863,90.006,0.223
						c6.796-0.093,12.971-3.615,16.516-9.415c2.262-3.701,3.244-8.112,2.769-12.423l-1.967-17.809
						c-1.102-9.987-9.512-17.518-19.561-17.518h-26.324c-5.874,0-11.393,2.591-15.142,7.112l-29.574,35.632
						c-1.115,1.344-2.379,2.567-3.756,3.638C890.228,1568.64,886.071,1572.079,883.662,1574.219z"/>
				</g>
			</g>
			<path d="M1952.12,1927.005H494.113c-15.97,0-31.81-2.374-47.081-7.058l-69.099-21.187c-25.714-7.884-43.844-30.294-46.188-57.088
				l-3.864-44.18c-0.572-7.288,0.809-14.597,3.992-21.152c3.536-7.292,4.779-15.382,3.593-23.396l-8.162-55.173
				c-1.791-12.108,4.428-23.78,15.473-29.047l20.944-9.987c115.64-55.147,238.754-90.958,365.923-106.435l52.832-6.431l60.28-32.417
				c339.519-182.575,740.791-208.395,1100.905-70.842l207.693,79.333c9.445,3.608,15.241,13.142,14.094,23.188l-10.265,89.887
				l13.975,72.108c2.55,13.153,3.842,26.614,3.842,40.01v20.148c0,18.012-3.513,35.574-10.438,52.198l-2.049-0.854l2.049,0.854
				l-7.429,17.833c-10.662,25.593-31.844,45.357-58.112,54.228l-67.223,22.698C2004.72,1922.711,1978.585,1927.005,1952.12,1927.005
				z M1470.527,1359.688c-215.909,0-430.969,52.977-625.667,157.675l-60.649,32.614c-0.243,0.13-0.51,0.215-0.783,0.247
				l-53.246,6.483c-126.692,15.421-249.342,51.095-364.548,106.034l-20.944,9.987c-9.276,4.423-14.497,14.224-12.993,24.39
				l8.162,55.173c1.318,8.901-0.063,17.887-3.992,25.983c-2.838,5.848-4.07,12.366-3.561,18.849l3.862,44.16
				c2.186,24.984,19.09,45.876,43.065,53.229l69.099,21.187c14.849,4.554,30.253,6.863,45.78,6.863H1952.12
				c25.981,0,51.637-4.215,76.256-12.529l67.223-22.698c25.06-8.461,45.264-27.317,55.436-51.73l7.429-17.833
				c6.698-16.08,10.096-33.067,10.096-50.49v-20.148c0-13.114-1.264-26.291-3.76-39.165l-14.04-72.444
				c-0.043-0.223-0.052-0.451-0.026-0.674l10.304-90.225c0.915-8.031-3.719-15.653-11.267-18.535l-207.693-79.333
				C1789.674,1388.544,1629.868,1359.688,1470.527,1359.688z"/>
			<g>
				<g>
					
						<ellipse transform="matrix(0.7071 -0.7071 0.7071 0.7071 -773.5116 1822.9098)" cx="1813.691" cy="1845.166" rx="173.337" ry="173.337"/>
					<g>
						
							<ellipse transform="matrix(0.7071 -0.7071 0.7071 0.7071 -773.5116 1822.9098)" style="fill:#FFFFFF;" cx="1813.691" cy="1845.166" rx="116.583" ry="116.583"/>
						<path d="M1813.691,1963.969c-65.508,0-118.804-53.296-118.804-118.804c0-65.508,53.296-118.801,118.804-118.801
							s118.804,53.294,118.804,118.801C1932.495,1910.673,1879.199,1963.969,1813.691,1963.969z M1813.691,1730.804
							c-63.06,0-114.363,51.303-114.363,114.361c0,63.06,51.303,114.363,114.363,114.363s114.363-51.303,114.363-114.363
							C1928.054,1782.107,1876.751,1730.804,1813.691,1730.804z"/>
					</g>
					<g>
						<circle style="fill:#FFFFFF;" cx="1813.691" cy="1845.166" r="93.557"/>
						<path d="M1813.691,1940.943c-52.812,0-95.778-42.966-95.778-95.778c0-52.81,42.966-95.776,95.778-95.776
							c52.812,0,95.778,42.966,95.778,95.776C1909.469,1897.977,1866.503,1940.943,1813.691,1940.943z M1813.691,1753.83
							c-50.364,0-91.337,40.973-91.337,91.335c0,50.364,40.973,91.337,91.337,91.337c50.364,0,91.337-40.973,91.337-91.337
							C1905.028,1794.803,1864.055,1753.83,1813.691,1753.83z"/>
					</g>
				</g>
				<g>
					
						<ellipse transform="matrix(0.7071 -0.7071 0.7071 0.7071 -1115.8496 996.4327)" cx="644.876" cy="1845.166" rx="173.337" ry="173.337"/>
					<g>
						
							<ellipse transform="matrix(0.7071 -0.7071 0.7071 0.7071 -1115.8496 996.4327)" style="fill:#FFFFFF;" cx="644.876" cy="1845.166" rx="116.583" ry="116.583"/>
						<path d="M644.875,1963.969c-65.508,0-118.804-53.296-118.804-118.804c0-65.508,53.296-118.801,118.804-118.801
							s118.804,53.294,118.804,118.801C763.679,1910.673,710.383,1963.969,644.875,1963.969z M644.875,1730.804
							c-63.06,0-114.363,51.303-114.363,114.361c0,63.06,51.303,114.363,114.363,114.363s114.363-51.303,114.363-114.363
							C759.238,1782.107,707.935,1730.804,644.875,1730.804z"/>
					</g>
					<g>
						<circle style="fill:#FFFFFF;" cx="644.876" cy="1845.166" r="93.557"/>
						<path d="M644.875,1940.943c-52.81,0-95.776-42.966-95.776-95.778c0-52.81,42.966-95.776,95.776-95.776
							c52.812,0,95.778,42.966,95.778,95.776C740.653,1897.977,697.688,1940.943,644.875,1940.943z M644.875,1753.83
							c-50.362,0-91.335,40.973-91.335,91.335c0,50.364,40.973,91.337,91.335,91.337c50.364,0,91.337-40.973,91.337-91.337
							C736.213,1794.803,695.24,1753.83,644.875,1753.83z"/>
					</g>
				</g>
			</g>
		</g>
		<g>
			<g>
				<g>
					<polygon style="fill:#FFFFFF;" points="1656.646,2021.015 1653.941,2070.881 1620.6,2076.504 1617.634,2017.689 					"/>
					<path d="M1620.6,2078.724c-0.503,0-0.993-0.171-1.39-0.49c-0.494-0.397-0.796-0.984-0.828-1.617l-2.966-58.814
						c-0.033-0.642,0.215-1.264,0.677-1.711c0.46-0.444,1.091-0.679,1.73-0.614l39.013,3.326c1.195,0.102,2.092,1.134,2.027,2.331
						l-2.706,49.865c-0.054,1.039-0.822,1.897-1.847,2.071l-33.34,5.623C1620.847,2078.713,1620.724,2078.724,1620.6,2078.724z
						 M1619.98,2020.118l2.713,53.781l29.127-4.914l2.494-45.941L1619.98,2020.118z"/>
				</g>
				<g>
					<path style="fill:#FFFFFF;" d="M1619.672,2160.826c14.08,1.262,37.098,4.134,63.827-0.952
						c8.739-1.663,14.147-10.512,11.589-19.032c-7.138-23.781-19.651-68.957-38.243-89.247l-4.028,9.93l-6.302-8.737
						c-0.898-1.439-2.427-2.365-4.119-2.493l-13.251-1.005c-2.768-0.21-5.234,1.74-5.667,4.482l-0.373,5.98l-8.891-8.629
						l-2.264,52.72c-0.441,10.275-1.609,18.208-3.495,28.318l-2.335,12.519C1605.458,2152.867,1611.49,2160.092,1619.672,2160.826z"
						/>
					<path d="M1651.391,2165c-11.024,0-20.615-0.902-28.167-1.615l-3.749-0.347c-9.343-0.837-16.326-9.153-15.569-18.537
						c0.006-0.078,0.017-0.154,0.03-0.23l2.335-12.518c1.856-9.946,3.018-17.718,3.461-28.006l2.264-52.719
						c0.037-0.874,0.585-1.644,1.396-1.967c0.813-0.321,1.739-0.143,2.368,0.469l5.427,5.269l0.074-1.167
						c0.633-4.063,4.115-6.878,8.053-6.555l13.249,1.004c2.39,0.18,4.571,1.5,5.837,3.532l3.868,5.358l2.52-6.21
						c0.286-0.705,0.915-1.216,1.665-1.351c0.75-0.135,1.516,0.126,2.03,0.685c17.67,19.285,29.895,60.404,37.2,84.971l1.533,5.139
						c1.394,4.649,0.748,9.697-1.774,13.851c-2.533,4.172-6.733,7.086-11.529,7.999C1672.224,2164.28,1661.235,2165,1651.391,2165z
						 M1608.325,2144.967c-0.499,6.921,4.658,13.031,11.544,13.647l3.771,0.349c14.053,1.327,35.286,3.326,59.445-1.271
						c3.561-0.679,6.681-2.843,8.561-5.939c1.871-3.081,2.351-6.826,1.316-10.274l-1.535-5.148
						c-6.863-23.082-18.134-60.993-33.893-80.528l-2.658,6.555c-0.304,0.748-0.991,1.273-1.793,1.37
						c-0.811,0.1-1.596-0.252-2.067-0.906l-6.301-8.736c-0.603-0.96-1.503-1.505-2.485-1.578l-13.251-1.004
						c-1.602-0.111-3.055,1.026-3.309,2.613l-0.349,5.772c-0.054,0.865-0.607,1.62-1.416,1.932
						c-0.809,0.308-1.726,0.126-2.346-0.477l-5.339-5.18l-2.051,47.773c-0.453,10.506-1.687,18.743-3.53,28.631L1608.325,2144.967z"
						/>
				</g>
				<path d="M1649.992,2149.791c-18.656,0-32.736-3.19-33.655-3.404c-1.195-0.275-1.938-1.468-1.661-2.663
					c0.275-1.195,1.483-1.941,2.663-1.663c0.347,0.083,35.179,7.954,67.579-1.169c1.173-0.327,2.407,0.356,2.739,1.537
					c0.332,1.18-0.356,2.405-1.537,2.739C1673.661,2148.675,1661.024,2149.791,1649.992,2149.791z"/>
				<path d="M1632.487,2112.856c-1.21,0-2.199-0.969-2.22-2.181c-0.022-1.227,0.956-2.238,2.181-2.26l31.489-0.549
					c1.197-0.041,2.238,0.956,2.259,2.181c0.022,1.227-0.956,2.238-2.181,2.26l-31.489,0.549
					C1632.513,2112.856,1632.5,2112.856,1632.487,2112.856z"/>
				<g>
					<polygon style="fill:#FFFFFF;" points="1498.22,2002.526 1496.844,2075.166 1456.487,2077.201 1450.96,2004.909 					"/>
					<path d="M1456.484,2079.422c-1.153,0-2.123-0.889-2.212-2.052l-5.527-72.292c-0.046-0.596,0.152-1.188,0.549-1.637
						c0.395-0.449,0.956-0.72,1.552-0.75l47.261-2.383c0.633-0.041,1.216,0.195,1.659,0.625c0.44,0.427,0.685,1.021,0.674,1.635
						l-1.377,72.64c-0.022,1.167-0.943,2.118-2.108,2.177l-40.357,2.036C1456.56,2079.422,1456.524,2079.422,1456.484,2079.422z
						 M1453.347,2007.012l5.189,67.863l36.127-1.823l1.292-68.188L1453.347,2007.012z"/>
				</g>
				<g>
					<path style="fill:#FFFFFF;" d="M1509.448,2115.499c0.447,6.843-3.928,13.09-10.521,14.979
						c-22.93,6.571-74.588,21.228-89.385,24.2c-19.204,3.857-43.284-0.872-54.078-11.674c-10.793-10.802,20.961-39.496,36.182-50.12
						c22.612-15.783,43.587-45.783,52.927-47.556c9.341-1.773,28.274,24.628,28.274,24.628l28.092-13.501
						C1500.94,2056.454,1507.182,2080.795,1509.448,2115.499z"/>
					<path d="M1395.626,2158.23c-16.577,0-33.234-5.154-41.73-13.656c-2.147-2.149-3.085-4.916-2.793-8.229
						c1.273-14.391,27.009-36.723,39.273-45.284c11.093-7.743,21.686-18.858,31.031-28.666
						c10.083-10.583,17.369-18.229,22.752-19.25c9.372-1.785,24.407,17.273,29.392,24.008l26.426-12.7
						c0.605-0.284,1.299-0.291,1.899-0.011c0.603,0.28,1.05,0.817,1.214,1.461c0.063,0.245,6.321,24.938,8.574,59.449
						c0.512,7.841-4.588,15.098-12.125,17.258c-21.95,6.291-74.617,21.243-89.559,24.244
						C1405.34,2157.786,1400.487,2158.23,1395.626,2158.23z M1445.584,2047.454c-0.208,0-0.408,0.017-0.596,0.054
						c-3.981,0.757-11.941,9.109-20.365,17.952c-9.491,9.957-20.246,21.245-31.706,29.245
						c-15.046,10.501-36.411,30.951-37.391,42.031c-0.173,1.971,0.319,3.508,1.509,4.699c10.044,10.052,32.918,14.916,52.068,11.067
						c14.784-2.969,67.314-17.885,89.212-24.158c5.542-1.589,9.294-6.93,8.916-12.7c-1.802-27.603-6.184-48.807-7.817-55.993
						l-25.606,12.305c-0.98,0.466-2.138,0.165-2.767-0.707C1463.783,2061.13,1451.363,2047.454,1445.584,2047.454z"/>
				</g>
				<path d="M1394.357,2139.611c-10.096,0-18.867-1.438-25.023-5.041c-1.058-0.62-1.411-1.982-0.794-3.04
					c0.62-1.058,1.98-1.414,3.04-0.793c28.032,16.419,120.519-17.384,121.451-17.729c1.141-0.425,2.426,0.165,2.851,1.316
					c0.423,1.149-0.165,2.427-1.316,2.852C1491.488,2118.311,1433.19,2139.611,1394.357,2139.611z"/>
				<path d="M1441.709,2098.729c-0.492,0-0.989-0.163-1.401-0.499l-21.46-17.481c-0.95-0.774-1.093-2.173-0.319-3.125
					c0.772-0.948,2.173-1.095,3.125-0.319l21.46,17.481c0.95,0.774,1.093,2.173,0.319,3.125
					C1442.995,2098.449,1442.356,2098.729,1441.709,2098.729z"/>
				<g>
					<path style="fill:#FFFFFF;" d="M1642.963,1522.129c0,0,23.916,225.659,34.4,303.446c10.484,77.786-5.032,204.456-5.032,204.456
						l-62.46-0.132c0,0-8.824-112.408-15.602-170.877c-1.662-14.338-5.632-28.293-11.653-41.41
						c-9.46-20.608-24.288-56.109-31.074-89.353c-10.384-50.868-41.033-130.497-41.033-130.497s-1.195,405.218-1.673,437.073
						c0,0-48.74,4.638-66.809-5.497c0,0-38.463-145.794-38.05-226.193c0.413-80.398-14.526-279.348-14.526-279.348
						L1642.963,1522.129z"/>
					<path d="M1484.155,2038.135c-15.122,0-33.34-1.321-43.215-6.861c-0.525-0.295-0.906-0.789-1.06-1.37
						c-0.386-1.459-38.534-146.999-38.124-226.77c0.41-79.39-14.37-277.182-14.519-279.17c-0.046-0.614,0.165-1.219,0.581-1.672
						s1.004-0.711,1.618-0.716l253.512-1.667c0.006,0,0.011,0,0.015,0c1.134,0,2.088,0.856,2.207,1.986
						c0.241,2.257,24.034,226.518,34.394,303.382c10.401,77.178-4.875,203.755-5.031,205.026c-0.137,1.112-1.082,1.949-2.203,1.949
						c-0.002,0-0.002,0-0.004,0l-62.459-0.132c-1.158-0.002-2.119-0.893-2.21-2.047c-0.089-1.123-8.899-113.034-15.595-170.794
						c-1.622-13.99-5.479-27.698-11.466-40.741c-8.671-18.895-24.262-55.692-31.231-89.834
						c-7.912-38.75-27.887-94.937-36.673-118.775c-0.204,67.817-1.21,396.56-1.637,424.941c-0.017,1.132-0.882,2.071-2.01,2.177
						C1508.106,2037.137,1497.301,2038.135,1484.155,2038.135z M1443.93,2027.837c15.781,8.031,53.623,5.664,62.711,4.955
						c0.49-43.551,1.637-431.054,1.648-435.035c0.002-1.069,0.768-1.984,1.817-2.177c1.052-0.204,2.09,0.386,2.476,1.386
						c0.306,0.798,30.832,80.385,41.134,130.849c6.882,33.707,22.325,70.148,30.918,88.872
						c6.182,13.468,10.165,27.627,11.839,42.081c6.204,53.517,14.218,153.391,15.449,168.916l58.435,0.124
						c1.884-16.321,14.424-130.569,4.805-201.936c-9.844-73.034-31.794-278.927-34.195-301.508l-249.127,1.639
						c1.68,22.761,14.742,202.322,14.357,277.153C1405.808,1879,1440.653,2015.204,1443.93,2027.837z"/>
				</g>
				<path d="M1621.305,1838.612c-3.571,0-7.153-0.605-10.571-1.839c-1.151-0.416-1.75-1.689-1.333-2.843
					c0.414-1.153,1.685-1.756,2.843-1.333c7.852,2.836,16.727,1.808,23.73-2.745c1.026-0.668,2.403-0.375,3.073,0.653
					c0.668,1.028,0.375,2.403-0.653,3.073C1633.278,1836.901,1627.304,1838.612,1621.305,1838.612z"/>
				<path d="M1635.703,1589.539c-0.076,0-0.154-0.004-0.234-0.013c-11.52-1.206-25.203-9.283-29.049-28.332
					c-0.243-1.203,0.536-2.374,1.737-2.617c1.214-0.241,2.374,0.536,2.617,1.737c3.37,16.694,15.207,23.754,25.159,24.797
					c1.219,0.126,2.103,1.219,1.975,2.439C1637.788,1588.691,1636.826,1589.539,1635.703,1589.539z"/>
				<path d="M1472.89,1961.28c-1.158,0-2.132-0.896-2.214-2.069c-2.491-36.198-47.66-102.25-48.118-102.914
					c-0.694-1.01-0.438-2.392,0.572-3.088c1.01-0.694,2.394-0.438,3.088,0.572c1.889,2.747,46.314,67.726,48.89,105.126
					c0.082,1.223-0.839,2.283-2.064,2.368C1472.992,1961.278,1472.942,1961.28,1472.89,1961.28z"/>
			</g>
			<g>
				<g>
					<path style="fill:#FFFFFF;" d="M1411.359,1200.228c-13.673-39.389-33.822-34.003-48.326-22.544
						c-10.426,8.237-17.435,20.102-19.784,33.18c-1.938,10.791-5.925,26.515-13.978,41.183
						c-15.071,27.449-70.79,38.495-90.226,38.419c-8.481-0.032-31.228-27.248-45.829-22.637
						c-10.491,3.313,9.071,19.962,6.623,21.159c-9.08,4.443-17.703,3.486-25.933,3.451c-13.356-0.057-25.285-3.669-30.283-3.698
						c-6.329-0.037-8.452,6.445-5.832,12.207c3.747,8.239,11.929,20.721,25.448,25.077c24.171,7.788,65.505,0.498,79.926-2.304
						c10.984-2.133,140.42,5.902,156.901-48.107C1403.495,1264.379,1417.114,1216.804,1411.359,1200.228z"/>
					<path d="M1190.966,1331.712c-10.399,0-20.348-0.976-28.41-3.573c-15.694-5.059-23.962-20.057-26.788-26.272
						c-1.819-3.998-1.711-8.391,0.278-11.462c1.624-2.507,4.295-3.884,7.522-3.884c0.024,0,0.046,0,0.067,0
						c2.086,0.011,5.024,0.546,8.743,1.221c5.668,1.032,13.433,2.442,21.536,2.476c1.201,0.004,2.411,0.03,3.63,0.054
						c6.355,0.13,12.919,0.262,19.613-2.511c-0.59-0.837-1.425-1.912-2.105-2.789c-3.708-4.779-8.326-10.729-6.906-15.28
						c0.41-1.312,1.507-3.068,4.404-3.981c9.987-3.172,22.614,6.384,32.749,14.053c5.501,4.165,11.191,8.469,13.756,8.48
						c0.065,0,0.132,0,0.197,0c19.428,0,73.646-10.989,88.074-37.267c7.938-14.456,11.852-30.008,13.739-40.507
						c2.468-13.724,9.779-25.985,20.593-34.529c9.768-7.721,18.908-10.412,27.176-7.995c10.094,2.945,18.379,13.561,24.624,31.552
						c6.158,17.735-8.305,67.056-11.267,76.764c-14.315,46.917-109.675,48.532-145.574,49.139
						c-6.403,0.108-11.462,0.195-13.027,0.499C1230.354,1328.472,1209.913,1331.712,1190.966,1331.712z M1143.569,1290.962
						c-1.719,0-2.995,0.625-3.795,1.858c-1.156,1.784-1.143,4.614,0.037,7.207c2.583,5.677,10.098,19.368,24.108,23.882
						c21.801,7.023,58.745,1.531,78.824-2.368c1.947-0.38,6.661-0.46,13.799-0.579c35.014-0.594,128.028-2.171,141.402-45.997
						c1.771-5.807,17.143-57.229,11.319-74.01c-5.748-16.555-13.04-26.226-21.675-28.746c-6.802-1.993-14.604,0.438-23.177,7.214
						c-9.961,7.871-16.701,19.177-18.975,31.831c-1.945,10.827-5.989,26.877-14.216,41.86c-15.528,28.277-71.094,39.57-91.962,39.57
						c-0.074,0-0.147,0-0.221,0c-4.046-0.015-9.506-4.148-16.419-9.38c-9.32-7.052-20.916-15.827-28.733-13.361
						c-1.292,0.41-1.448,0.909-1.498,1.071c-0.731,2.34,3.762,8.127,6.173,11.236c2.7,3.476,4.052,5.221,3.643,6.986
						c-0.176,0.763-0.683,1.398-1.388,1.743c-8.248,4.037-15.922,3.886-23.362,3.732c-1.193-0.026-2.379-0.05-3.556-0.054
						c-8.495-0.037-16.482-1.487-22.312-2.548c-3.367-0.612-6.275-1.141-7.975-1.149
						C1143.597,1290.962,1143.582,1290.962,1143.569,1290.962z"/>
				</g>
				<path d="M1680.758,1257.474c0,0,8.681-133.102-70.409-162.037c-76.141-27.856-176.831-28.456-231.193,7.562
					c-26.84,17.783-51.287,126.527-51.287,126.527l42.709,48.301c0,0-2.478,239.215,12.165,301.596c0,0,71.01,4.673,100.357-8.629
					c29.347-13.302,126.963-34.788,175.114-15.54l-23.778-301.505L1680.758,1257.474z"/>
				<path style="fill:#FFFFFF;" d="M1590.204,1498.52c-0.091,0-0.184-0.006-0.277-0.017
					c-115.603-14.472-153.148-92.571-153.514-93.36c-0.516-1.11-0.033-2.429,1.078-2.947c1.117-0.518,2.433-0.035,2.949,1.076
					c0.358,0.765,36.99,76.673,150.038,90.825c1.217,0.152,2.079,1.262,1.928,2.478
					C1592.264,1497.699,1591.308,1498.52,1590.204,1498.52z"/>
				<g>
					<path style="fill:#FFFFFF;" d="M1375.343,1360.505l120.409,3.859c3.862,0.124,6.663-3.642,5.434-7.305l-49.346-147.05
						c-0.737-2.197-2.763-3.703-5.078-3.777l-120.409-3.859c-3.862-0.124-6.663,3.642-5.434,7.305l49.347,147.05
						C1371.001,1358.924,1373.027,1360.431,1375.343,1360.505z"/>
					<path d="M1495.929,1366.585c-0.082,0-0.165,0-0.25-0.004l-120.408-3.858c-3.226-0.102-6.084-2.227-7.112-5.289l-49.347-147.051
						c-0.809-2.409-0.386-5.065,1.132-7.104c1.516-2.041,3.901-3.257,6.479-3.127l120.41,3.858c3.229,0.104,6.087,2.231,7.112,5.291
						l49.345,147.048c0.809,2.411,0.386,5.067-1.132,7.106C1500.693,1365.427,1498.379,1366.585,1495.929,1366.585z
						 M1326.169,1204.59c-1.06,0-2.025,0.484-2.663,1.34c-0.659,0.887-0.835,1.995-0.484,3.04l49.347,147.051
						c0.44,1.312,1.663,2.22,3.044,2.266l120.408,3.858c1.112,0.043,2.116-0.455,2.773-1.338c0.659-0.887,0.835-1.995,0.484-3.042
						l-49.345-147.048c-0.438-1.312-1.663-2.222-3.047-2.268l-120.408-3.858C1326.243,1204.59,1326.206,1204.59,1326.169,1204.59z"
						/>
				</g>
				<g>
					<path style="fill:#FFFFFF;" d="M1667.255,1250.722l-64.14-2.894c0,0-0.482,54.013-6.269,54.977
						c-20.618,3.436-63.796,3.607-91.897,0.216c-9.786-1.181-17.535-8.67-19.375-18.354c-1.39-7.313-5.35-15.904-15.396-22.086
						c-9.71-5.976-0.134,12.826-9.214,24.933c-4.878,6.504-20.322,3.621-41.382-1.257s-26.408,17.627-2.805,31.229
						c25.588,14.746,41.847,13.09,50.006,14.817c16.254,3.44,159.964,25.963,182.148,13.906
						C1666.068,1336.894,1667.255,1250.722,1667.255,1250.722z"/>
					<path d="M1621.066,1351.971c-51.279,0-146.613-15.777-154.744-17.496c-1.628-0.345-3.71-0.555-6.121-0.8
						c-9.558-0.969-24.004-2.433-44.533-14.266c-14.877-8.574-18.548-20.361-15.662-27.685c2.142-5.44,8.541-10.302,20.077-7.63
						c18.958,4.393,34.984,7.576,39.104,2.09c4.033-5.378,3.972-12.494,3.929-17.689c-0.037-4.339-0.063-7.474,2.307-8.81
						c2.004-1.134,4.339,0.03,5.92,1.006c8.845,5.443,14.519,13.591,16.412,23.563c1.683,8.851,8.699,15.506,17.462,16.562
						c27.672,3.339,69.998,3.266,90.912-0.141c2.687-3.439,4.562-29.867,4.766-52.866c0.007-0.603,0.256-1.177,0.694-1.592
						c0.436-0.416,1.03-0.666,1.626-0.607l64.142,2.895c1.199,0.054,2.138,1.05,2.121,2.249
						c-0.124,8.953-1.719,87.751-19.487,97.406C1644.983,1350.88,1634.545,1351.971,1621.066,1351.971z M1414.041,1287.805
						c-4.866,0-8.489,1.956-9.905,5.547c-2.207,5.607,1.151,14.951,13.747,22.21c19.706,11.356,33.583,12.763,42.766,13.693
						c2.539,0.258,4.731,0.481,6.592,0.874c16.557,3.502,159.371,25.677,180.627,14.127c12.739-6.921,16.616-66.36,17.13-91.413
						l-59.697-2.693c-0.074,4.454-0.301,14.714-0.937,24.942c-1.657,26.771-4.443,29.453-7.156,29.904
						c-21.122,3.524-64.356,3.628-92.527,0.23c-10.69-1.29-19.246-9.385-21.291-20.144c-1.676-8.836-6.514-15.77-14.378-20.61
						c-0.596-0.366-1.015-0.568-1.294-0.679c-0.193,1.006-0.176,3.077-0.163,4.664c0.045,5.499,0.115,13.812-4.818,20.389
						c-5.74,7.667-21.72,4.658-43.657-0.425C1417.294,1288.007,1415.605,1287.805,1414.041,1287.805z"/>
				</g>
			</g>
			<g>
				<path d="M1484.172,1041.893c6.573,5.436,19.209,11.841,28.578,6.515c6.976-3.966,10.502-13.505,9.715-24.19
					c3.327,0.104,7.661-0.348,10.623-3.245c4.56-4.459,3.276-12.176,2.832-17.267c-2.049-23.5,11.446-27.802,7.294-43.61
					c-3.263-12.425-13.504-19.408-15.418-20.714c-9.668-6.594-15.861-3.996-31.722-7.308c-26.692-5.572-28.103-16.884-45.463-16.062
					c-1.004,0.048-24.611,1.5-31.805,18.222c-5.851,13.601,2.578,29.348,10.88,37.426c10.749,10.46,17.796,4.668,28.493,13.357
					C1476.958,1000.267,1464.644,1025.747,1484.172,1041.893z"/>
				<g>
					<path style="fill:#FFFFFF;" d="M1430.108,997.341c5.213-4.976,10.728-14.82,12.428-21.824
						c6.209-25.57,29.428-30.288,31.832-5.415c0.64,6.625,24.874,5.058,22.348,12.174c-6.587,18.55-6.998,13.669,3.927,19.832
						c1.203-0.011,2.405,0.19,3.556,0.659c5.557,2.257,7.851,9.531,5.123,16.249c-1.656,4.077-4.787,6.984-8.23,8.156l1.448,28.711
						c0.543,10.763,7.542,20.129,17.71,23.699l9.893,3.474c0,0-43.719,31.784-91.234,1.704l5.986-3.056
						c10.54-5.381,17.086-16.304,16.862-28.137l-0.233-5.615c-3.071,0.43-6.07,0.372-8.87-0.292
						c-13.023-3.086-18.03-17.659-16.774-36.151l-5.663-5.149C1427.572,1003.954,1427.521,999.81,1430.108,997.341z"/>
					<path d="M1482.006,1099.827c-13.504,0-28.726-3.344-44.284-13.192c-0.672-0.427-1.067-1.182-1.03-1.977
						c0.037-0.798,0.499-1.514,1.208-1.876l5.985-3.055c9.716-4.961,15.859-15.211,15.653-26.118l-0.134-3.213
						c-2.563,0.143-4.996-0.039-7.26-0.577c-12.967-3.07-19.695-16.67-18.544-37.384l-4.877-4.432
						c-1.713-1.559-2.715-3.782-2.743-6.1c-0.028-2.318,0.917-4.567,2.593-6.167c0-0.002,0-0.002,0-0.002
						c4.775-4.556,10.18-14.055,11.804-20.74c3.929-16.182,14.214-24.056,22.436-23.479c7.559,0.538,12.704,7.405,13.765,18.372
						c0.152,1.576,6.49,3.012,9.894,3.784c5.579,1.264,10.399,2.357,12.078,5.406c0.659,1.197,0.748,2.561,0.258,3.944
						c-0.961,2.702-1.789,4.911-2.472,6.728c-1.193,3.172-2.22,5.913-2.062,6.581c0.191,0.232,1.433,0.817,2.531,1.336
						c1.19,0.559,2.647,1.247,4.434,2.233c1.329,0.054,2.606,0.327,3.797,0.813c6.681,2.713,9.528,11.299,6.345,19.14
						c-1.611,3.966-4.473,7.086-7.99,8.775l1.368,27.143c0.501,9.907,6.871,18.431,16.228,21.716l9.892,3.474
						c0.779,0.273,1.342,0.956,1.462,1.774c0.119,0.815-0.223,1.631-0.891,2.116
						C1531.145,1085.071,1510.368,1099.825,1482.006,1099.827z M1443.479,1084.92c36.573,20.938,70.517,5.113,81.588-1.294
						l-5.551-1.949c-11.067-3.883-18.602-13.964-19.194-25.68l-1.446-28.711c-0.05-0.991,0.564-1.895,1.503-2.214
						c2.971-1.013,5.547-3.589,6.887-6.891c2.264-5.57,0.512-11.562-3.901-13.355c-0.831-0.338-1.763-0.466-2.702-0.497
						c-0.366-0.011-0.772-0.095-1.11-0.286c-1.874-1.056-3.406-1.78-4.64-2.361c-6.629-3.122-5.88-5.113-2.732-13.494
						c0.674-1.798,1.494-3.981,2.444-6.655c0.082-0.232,0.052-0.291,0.037-0.314c-0.716-1.301-5.802-2.455-9.168-3.218
						c-6.329-1.433-12.873-2.917-13.333-7.687c-0.835-8.628-4.445-13.999-9.66-14.37c-6.24-0.447-14.495,6.459-17.806,20.098
						c-1.819,7.498-7.676,17.772-13.053,22.902c-0.8,0.765-1.232,1.795-1.219,2.903c0.013,1.106,0.473,2.123,1.29,2.867l5.664,5.15
						c0.501,0.457,0.768,1.117,0.722,1.793c-1.286,18.932,4.206,31.268,15.07,33.841c2.428,0.573,5.139,0.663,8.049,0.254
						c0.616-0.093,1.249,0.093,1.73,0.494c0.481,0.401,0.77,0.987,0.796,1.611l0.234,5.616c0.239,12.644-6.854,24.481-18.071,30.207
						L1443.479,1084.92z"/>
				</g>
				<path d="M1461.522,1050.172c-1.032,0-1.958-0.724-2.173-1.774c-0.247-1.201,0.527-2.374,1.728-2.621
					c16.356-3.359,23.37-16.633,23.44-16.768c0.564-1.089,1.893-1.52,2.988-0.961c1.089,0.557,1.522,1.891,0.965,2.981
					c-0.317,0.622-7.988,15.296-26.499,19.097C1461.821,1050.157,1461.669,1050.172,1461.522,1050.172z"/>
			</g>
		</g>
		<g>
			<g>
				<g>
					<g>
						<path style="fill:#FFFFFF;" d="M831.363,1982.717l19.831,75.196c3.964,15.031,5.01,30.682,3.082,46.106l-3.971,31.768
							l100.162-16.345l-12.942-9.534c-22.473-16.556-38.346-40.544-44.798-67.701l-17.236-72.546L831.363,1982.717z"/>
						<path d="M850.307,2138.009c-0.57,0-1.123-0.219-1.539-0.62c-0.505-0.486-0.75-1.182-0.664-1.875l3.97-31.768
							c1.902-15.215,0.883-30.444-3.025-45.264l-19.832-75.198c-0.306-1.16,0.366-2.355,1.516-2.695l44.128-13.056
							c0.59-0.174,1.219-0.098,1.743,0.208c0.529,0.306,0.906,0.815,1.047,1.407l17.236,72.546
							c6.321,26.61,21.933,50.202,43.955,66.43l12.943,9.534c0.72,0.529,1.052,1.438,0.841,2.307c-0.208,0.87-0.917,1.527-1.8,1.672
							l-100.162,16.345C850.545,2138,850.426,2138.009,850.307,2138.009z M834.061,1984.234l19.281,73.114
							c4.055,15.371,5.111,31.166,3.138,46.947l-3.602,28.824l92.027-15.018l-8.695-6.405
							c-22.87-16.848-39.078-41.344-45.641-68.975l-16.694-70.265L834.061,1984.234z"/>
					</g>
					<g>
						<g>
							<path style="fill:#FFFFFF;" d="M840.556,2151.32c-0.754-13.274-0.938-39.708,7.719-56.285
								c1.541-2.951,5.097-4.22,8.187-2.983l22.918,9.169c3.558,1.423,7.429-1.197,7.429-5.03v-1.563
								c0-2.221,1.739-4.052,3.956-4.168l19.744-1.033c7.367-0.385,14.71,1.004,21.441,4.022
								c20.417,9.154,63.777,30.77,74.14,53.367c2.356,5.138-1.47,11.008-7.117,11.261c-17.9,0.803-63.184,2.222-149.768,1.484
								C844.6,2159.522,840.817,2155.918,840.556,2151.32z"/>
							<path d="M895.709,2161.99c-13.977,0-29.442-0.063-46.524-0.208c-5.755-0.05-10.519-4.588-10.846-10.336
								c-0.809-14.207-0.848-40.559,7.967-57.44c2.071-3.966,6.791-5.69,10.98-4.016l22.917,9.168c1,0.401,2.086,0.284,2.979-0.319
								c0.893-0.605,1.405-1.57,1.405-2.648v-1.565c0-3.4,2.663-6.206,6.061-6.386l19.745-1.032
								c7.65-0.393,15.423,1.058,22.466,4.215c23.633,10.595,64.836,31.76,75.248,54.467c1.403,3.06,1.188,6.488-0.592,9.402
								c-1.817,2.977-4.974,4.848-8.444,5.002C983.625,2160.989,951.631,2161.99,895.709,2161.99z M842.772,2151.194
								c0.195,3.417,3.029,6.119,6.453,6.147c85.333,0.727,130.385-0.618,149.648-1.483c1.993-0.089,3.808-1.165,4.853-2.88
								c0.997-1.633,1.123-3.541,0.345-5.237c-10.172-22.184-54.458-43.941-73.028-52.268c-6.403-2.871-13.472-4.211-20.417-3.829
								l-19.745,1.032c-1.036,0.054-1.852,0.911-1.852,1.949v1.565c0,2.537-1.255,4.903-3.357,6.325
								c-2.101,1.42-4.762,1.704-7.119,0.765l-22.917-9.168c-2.071-0.826-4.382,0.013-5.393,1.947
								C841.922,2111.997,841.991,2137.445,842.772,2151.194z"/>
						</g>
						<path d="M921.068,2146.747c-17.982,0-40.03-0.421-66.319-1.622c-1.225-0.056-2.173-1.095-2.116-2.32s1.078-2.188,2.32-2.116
							c86.541,3.951,126.837-0.579,127.234-0.625c1.262-0.163,2.322,0.731,2.463,1.947c0.143,1.219-0.729,2.32-1.947,2.463
							C982.424,2144.507,962.581,2146.747,921.068,2146.747z"/>
						<path d="M943.587,2125.458c-0.419,0-0.839-0.117-1.216-0.364l-34.082-22.351c-1.023-0.672-1.31-2.049-0.638-3.075
							c0.672-1.021,2.047-1.312,3.075-0.637l34.082,22.351c1.023,0.672,1.31,2.049,0.638,3.075
							C945.02,2125.104,944.311,2125.458,943.587,2125.458z"/>
					</g>
				</g>
				<g>
					<g>
						<polygon style="fill:#FFFFFF;" points="628.372,1995.423 616.259,2080.455 585.603,2080.455 588.584,1996.825 						"/>
						<path d="M616.26,2082.675h-30.656c-0.603,0-1.18-0.245-1.598-0.679c-0.418-0.434-0.642-1.019-0.62-1.62l2.979-83.629
							c0.041-1.167,0.976-2.099,2.14-2.14l39.789-1.403c0.642-0.048,1.29,0.245,1.73,0.733c0.438,0.49,0.64,1.147,0.546,1.797
							l-12.112,85.032C618.302,2081.861,617.366,2082.675,616.26,2082.675z M587.904,2078.234h26.43l11.466-80.5l-35.073,1.238
							L587.904,2078.234z"/>
					</g>
					<g>
						<g>
							<path style="fill:#FFFFFF;" d="M615.086,2159.585c-12.543,1.344-30.136,4.548-56.993,0.256
								c-7.857-1.256-12.809-9.163-10.655-16.823c5.679-20.19,17.565-57.464,32.615-76.997c1.091-1.415,3.321-1.028,3.899,0.663
								l0.535,3.512c0.321,2.105,3.174,2.522,4.084,0.596l3.315-7.017c0.779-1.299,2.13-2.149,3.637-2.289l11.64-0.446
								c2.467-0.23,4.698,1.471,5.128,3.912l0.401,5.536c0.156,2.15,3.02,2.768,4.048,0.873l5.017-5.152
								c1.016-1.381,3.206-0.629,3.159,1.085l-0.597,22.096c-0.431,15.963,0.727,31.93,3.458,47.664l1.373,7.911
								C629.868,2152.262,622.376,2158.804,615.086,2159.585z"/>
							<path d="M584.513,2164.219c-7.763,0-16.618-0.564-26.773-2.186c-4.332-0.692-8.179-3.22-10.555-6.937
								c-2.407-3.762-3.092-8.383-1.884-12.678c5.779-20.547,17.75-57.969,32.994-77.752c1-1.299,2.617-1.932,4.25-1.672
								c1.631,0.271,2.975,1.409,3.508,2.973c0.043,0.126,0.074,0.254,0.093,0.384l0.536,3.51l3.196-7.034
								c1.245-2.093,3.24-3.348,5.44-3.554l11.761-0.453c3.484-0.321,6.774,2.194,7.401,5.746c0.013,0.074,0.022,0.15,0.026,0.223
								l0.399,5.536c0.098-0.178,0.102-0.369,0.243-0.514l4.933-5.065c1.049-1.299,2.784-1.797,4.373-1.258
								c1.65,0.566,2.728,2.118,2.682,3.862l-0.596,22.1c-0.427,15.783,0.726,31.671,3.426,47.222l1.372,7.912
								c0.876,8.84-7.741,16.319-16.015,17.208c-1.585,0.171-3.253,0.371-5.009,0.581
								C603.349,2163.209,594.912,2164.219,584.513,2164.219z M581.82,2067.44c-14.812,19.177-26.556,55.956-32.243,76.18
								c-0.867,3.079-0.375,6.39,1.349,9.085c1.72,2.687,4.389,4.443,7.518,4.944c23.134,3.695,39.438,1.743,51.342,0.314
								c1.776-0.212,3.461-0.414,5.065-0.585c6.082-0.653,12.687-6.124,12.091-12.197l-1.351-7.75
								c-2.749-15.84-3.925-32.024-3.491-48.103l0.564-20.87l-4.155,4.267c-0.989,1.518-2.778,2.279-4.588,1.884
								c-1.917-0.412-3.302-2.006-3.443-3.964l-0.39-5.406c-0.267-1.238-1.414-2.129-2.717-1.99l-11.761,0.453
								c-0.679,0.067-1.405,0.525-1.819,1.214l-3.209,6.822c-0.828,1.756-2.687,2.734-4.595,2.463
								c-1.917-0.282-3.402-1.757-3.693-3.673L581.82,2067.44z M615.087,2159.586h0.022H615.087z"/>
						</g>
						<path d="M588.965,2148.412c-7.656,0-16.802-0.9-27.037-3.591c-1.186-0.31-1.895-1.524-1.583-2.71
							c0.31-1.186,1.524-1.897,2.71-1.583c28.893,7.594,48.955,0.152,49.154,0.072c1.141-0.438,2.428,0.136,2.867,1.284
							c0.436,1.145-0.137,2.428-1.284,2.866C613.218,2144.969,603.942,2148.412,588.965,2148.412z"/>
						<path d="M602.836,2117.323h-28.112c-1.227,0-2.22-0.993-2.22-2.22s0.993-2.22,2.22-2.22h28.112c1.227,0,2.22,0.993,2.22,2.22
							S604.063,2117.323,602.836,2117.323z"/>
					</g>
				</g>
				<g>
					<path style="fill:#FFFFFF;" d="M826.342,1435.948c0,0,40.198,259.637,41.796,321.64
						c1.599,62.002,27.394,249.615,27.394,249.615s-33.14,12.299-70.977,3.699c0,0-123.094-332.242-131.962-434.099
						s25.222-148.485,25.222-148.485L826.342,1435.948z"/>
					<path style="fill:#FFFFFF;" d="M787.023,1419.785c0,0-136.251,416.056-138.48,585.181c0,0-30.026,7.051-73.191,0
						c0,0-27.677-464.333,52.097-594.418L787.023,1419.785z"/>
					<path d="M852.69,2016.204c-8.851,0-18.555-0.848-28.626-3.135c-0.731-0.167-1.329-0.692-1.589-1.394
						c-0.735-1.984-72.509-196.122-109.95-331.705c-40.123,150.273-60.898,259.594-61.761,325.026
						c-0.013,1.019-0.72,1.897-1.713,2.131c-1.242,0.293-30.951,7.073-74.056,0.03c-1.026-0.169-1.797-1.023-1.858-2.06
						c-0.226-3.784-21.924-380.2,31.727-548.142c0.373-1.167,1.616-1.823,2.791-1.438c1.167,0.373,1.813,1.622,1.438,2.791
						c-51.507,161.234-33.189,516.374-31.623,544.747c35.611,5.536,62.114,1.377,68.882,0.093
						c1.24-67.308,22.87-179.437,64.298-333.333c0.312-1.158,1.492-1.858,2.656-1.583c1.169,0.275,1.904,1.429,1.663,2.606
						l-0.145,0.709c35.331,130.3,105.314,320.945,111.397,337.448c31.515,6.817,59.814-1.065,66.865-3.313
						c-2.663-19.558-25.664-189.891-27.165-248.039c-0.997-38.69-16.837-153.293-29.947-242.618
						c-0.178-1.214,0.661-2.342,1.873-2.52c1.234-0.199,2.342,0.661,2.52,1.874c13.129,89.446,28.989,204.238,29.995,243.151
						c1.576,61.171,27.115,247.495,27.371,249.37c0.143,1.03-0.451,2.021-1.427,2.383
						C895.291,2009.66,877.279,2016.204,852.69,2016.204z"/>
					<path d="M712.543,1673.84c-0.18,0-0.362-0.022-0.544-0.067c-1.19-0.299-1.91-1.507-1.611-2.695l19.14-75.966
						c0.299-1.193,1.507-1.912,2.695-1.611c1.19,0.299,1.91,1.507,1.611,2.695l-19.14,75.966
						C714.44,1673.17,713.536,1673.84,712.543,1673.84z"/>
				</g>
			</g>
			<g>
				<path d="M748.268,1063.535c-8.582,49.283-58.624,102.189-108.96,95.204c-8.217-1.141-30.381-5.812-53.674-32.791
					c-32.111,22.975-73.031,16.892-95.098-9.771c-26.966-32.583-23.286-92.881,15.99-123.831
					c-31.117-0.259-39.481-12.227-41.953-16.942c-14.57-27.79,23.906-92.797,59.814-92.899c13.254-0.038,30.839,16.341,65.47,49.101
					c35.766,33.835,37.289,40.394,48.114,41.567c31.822,3.447,41.337-50.783,83.554-56.781
					c28.901-4.107,61.177,16.089,63.619,35.157c2.096,16.366-19.033,22.14-30.927,54.828
					C745.357,1030.719,752.211,1040.885,748.268,1063.535z"/>
				<path d="M706.405,898.051c2.461,7.541,0.009,28.902-11.327,32.602c-11.336,3.699-27.264-11.663-29.725-19.204
					c-2.461-7.541,4.734-16.654,16.07-20.354C692.759,887.395,703.943,890.51,706.405,898.051z"/>
			</g>
			<g>
				<g>
					<path style="fill:#FFFFFF;" d="M843.223,1439.153c0,0,12.624,84.287-2.814,100.444c0,0-50.458-55.273-52.853-95.195
						L843.223,1439.153z"/>
					<path d="M840.41,1541.818c-0.009,0-0.017,0-0.026,0c-0.614-0.006-1.199-0.269-1.613-0.724
						c-2.082-2.279-51.017-56.316-53.43-96.559c-0.072-1.195,0.815-2.231,2.008-2.342l55.666-5.25
						c1.156-0.13,2.229,0.715,2.405,1.88c0.52,3.487,12.6,85.554-3.404,102.307C841.596,1541.571,841.017,1541.818,840.41,1541.818z
						 M789.946,1446.409c3.506,34.271,41.639,79.728,50.345,89.704c9.708-15.632,4.391-71.052,1.039-94.551L789.946,1446.409z"/>
				</g>
				<g>
					<path style="fill:#FFFFFF;" d="M773.227,1440.011c0,0-15.717,68.003-34.364,84.961c-18.647,16.959-69.574-58.871-97.921-60.495
						c-28.347-1.624-59.541,66.772-59.541,66.772s7.901-85.417,31.237-103.512L773.227,1440.011z"/>
					<path d="M581.402,1533.47c-0.189,0-0.382-0.024-0.57-0.074c-1.047-0.28-1.741-1.273-1.641-2.35
						c0.327-3.528,8.266-86.591,32.089-105.063c0.436-0.338,0.982-0.494,1.529-0.46l160.587,12.273c0.646,0.05,1.236,0.377,1.62,0.9
						c0.384,0.52,0.52,1.184,0.375,1.815c-0.648,2.804-16.091,68.877-35.034,86.105c-11.599,10.547-31.693-7.96-52.966-27.56
						c-16.898-15.567-34.368-31.662-46.576-32.363c-26.463-1.416-57.088,64.807-57.392,65.478
						C583.054,1532.978,582.254,1533.47,581.402,1533.47z M639.964,1462.229c0.369,0,0.735,0.011,1.106,0.033
						c13.791,0.789,31.857,17.434,49.328,33.527c18.873,17.386,38.391,35.355,46.971,27.54
						c15.935-14.491,30.042-68.916,33.089-81.304l-157.107-12.006c-16.603,14.005-25.112,64.931-28.264,88.859
						C595.372,1499.429,617.934,1462.229,639.964,1462.229z"/>
				</g>
				<g>
					<path style="fill:#FFFFFF;" d="M1025.494,1033.767l25.94-27.044c4.403-4.59,11.827,0.575,9.055,6.299l-7.984,16.484
						c0,0,5.452,2.53,8.151,2.703c5.915,0.379,11.641-2.161,15.739-6.444c4.737-4.951,12.399-12.834,14.993-14.772
						c3.852-2.879,8.818-7.335,14.324-7.781l0.166-0.012c5.75-0.422,9.503,5.913,6.373,10.754l-10.843,16.769
						c-7.868,12.168-19.419,21.503-32.967,26.643l-22.251,8.441c-7.749,2.94-12.952,10.272-13.168,18.558l-2.245,86.286
						l-45.539-34.803l20.451-66.122C1009.772,1056.515,1016.512,1044.279,1025.494,1033.767z"/>
					<path d="M1030.774,1172.87c-0.479,0-0.954-0.154-1.349-0.455l-45.537-34.802c-0.739-0.566-1.047-1.533-0.772-2.422
						l20.45-66.124c4.2-13.578,11.011-25.94,20.239-36.743c0.028-0.033,0.056-0.065,0.087-0.095l25.94-27.044
						c2.719-2.834,6.872-3.244,10.089-1.004c3.222,2.242,4.278,6.275,2.567,9.807l-6.973,14.398
						c1.891,0.763,4.109,1.531,5.284,1.607c5.076,0.33,10.174-1.774,13.99-5.763c5.519-5.768,12.648-13.058,15.27-15.016
						c0.525-0.393,1.071-0.815,1.637-1.253c3.758-2.908,8.437-6.527,13.836-6.965c3.693-0.238,6.98,1.449,8.771,4.473
						c1.793,3.025,1.719,6.737-0.189,9.688l-10.842,16.77c-8.183,12.654-19.955,22.169-34.045,27.512l-22.252,8.441
						c-6.936,2.632-11.544,9.126-11.735,16.542l-2.246,86.285c-0.022,0.833-0.51,1.585-1.262,1.945
						C1031.426,1172.798,1031.099,1172.87,1030.774,1172.87z M987.814,1135.024l40.854,31.222l2.131-81.939
						c0.241-9.224,5.972-17.301,14.602-20.575l22.251-8.441c13.197-5.007,24.225-13.919,31.89-25.773l10.842-16.77
						c1.004-1.55,1.041-3.424,0.098-5.013c-0.939-1.585-2.591-2.437-4.443-2.32c-4.233,0.34-8.333,3.513-11.627,6.06
						c-0.586,0.453-1.151,0.891-1.696,1.297c-1.828,1.366-7.192,6.663-14.719,14.53c-4.727,4.937-11.074,7.533-17.485,7.125
						c-3.027-0.195-8.346-2.628-8.942-2.906c-0.54-0.251-0.956-0.707-1.156-1.268c-0.202-0.562-0.167-1.177,0.091-1.713
						l7.984-16.484c0.924-1.908,0.035-3.435-1.104-4.228c-1.141-0.789-2.88-1.097-4.35,0.434l-25.894,26.996
						c-8.814,10.33-15.319,22.147-19.335,35.125L987.814,1135.024z"/>
				</g>
				<g>
					<polygon style="fill:#FFFFFF;" points="975.978,1114.734 1089.571,1204.75 1038.939,1257.247 942.582,1176.979 					"/>
					<path d="M1038.939,1259.467c-0.503,0-1.008-0.169-1.42-0.514l-96.357-80.268c-0.811-0.674-1.034-1.828-0.536-2.756
						l33.395-62.245c0.31-0.579,0.861-0.991,1.505-1.125c0.646-0.13,1.312,0.026,1.83,0.434l113.593,90.017
						c0.49,0.39,0.794,0.969,0.837,1.594c0.041,0.625-0.182,1.238-0.618,1.689l-50.631,52.496
						C1040.104,1259.237,1039.523,1259.467,1038.939,1259.467z M945.395,1176.432l93.38,77.787l47.498-49.247l-109.593-86.849
						L945.395,1176.432z"/>
				</g>
				<g>
					<path style="fill:#FFFFFF;" d="M1077.712,1245.013l-130.449-100.648c0,0-14.275,21.715-37.667,24.06
						c-19.888,1.994-53.806-39.154-80.579-56.975c-34.483-22.687-75.334-30.929-115.081-27.556c0,0-0.191,0.01-0.554,0.051
						c-7.139,0.627-14.659,1.688-22.569,3.289c-54.902,9.192-190.467,39.583-216.159,118.413
						c-17.331,53.183,2.931,124.484,6.306,135.623c0.241,0.794,1.128,1.168,1.875,0.807l120.5-58.184l-9.301-27.979
						c-5.575-13.459-0.037-28.953,12.807-35.829l18.686-10.003c4.302,23.535,7.84,48.293,3.834,69.283
						c-14.812,77.63-31.804,103.024-40.281,166.682c0,0,29.36-6.899,50.68-5.518l200.896,7.683
						c13.408,0.513,25.036-9.35,26.536-22.684c2.101-18.657,2.147-51.693-5.564-109.661c-1.002-7.526-1.634-19.477-2.366-34.09
						C900.314,1306.488,975.268,1325.67,1077.712,1245.013z"/>
					<path d="M841.644,1450.453c-0.358,0-0.713-0.007-1.073-0.022l-200.895-7.682c-20.805-1.338-49.798,5.393-50.089,5.462
						c-0.703,0.165-1.455-0.026-1.999-0.516c-0.54-0.49-0.804-1.214-0.709-1.939c4.504-33.824,11.256-56.42,19.075-82.583
						c6.687-22.377,14.266-47.738,21.226-84.223c3.732-19.543,0.737-42.89-3.294-65.469l-15.996,8.563
						c-11.891,6.364-16.965,20.56-11.805,33.022l9.359,28.128c0.351,1.058-0.137,2.214-1.143,2.7L483.8,1344.076
						c-0.941,0.46-2.036,0.479-2.99,0.061c-0.952-0.416-1.672-1.225-1.973-2.223c-4.098-13.52-23.661-83.666-6.295-136.955
						c25.962-79.652,161.036-110.395,217.906-119.916c7.587-1.535,15.263-2.654,22.739-3.311l0.51-0.059
						c0.1-0.011,0.208-0.011,0.295-0.013c42.829-3.584,83.017,6.071,116.247,27.935c9.679,6.442,20.333,15.939,30.637,25.122
						c18.028,16.067,36.658,32.755,48.499,31.497c22.028-2.207,35.897-22.863,36.036-23.071c0.34-0.516,0.88-0.867,1.487-0.969
						c0.62-0.1,1.234,0.054,1.724,0.432l130.448,100.648c0.54,0.419,0.859,1.063,0.863,1.748c0.004,0.685-0.31,1.331-0.848,1.756
						c-45.945,36.174-90.856,55.811-133.488,58.368c-29.886,1.795-58.114-4.718-83.911-19.357
						c0.677,13.225,1.264,23.214,2.142,29.806c6.462,48.571,8.335,85.65,5.57,110.204
						C867.82,1439.804,855.734,1450.45,841.644,1450.453z M633.708,1438.125c2.112,0,4.185,0.059,6.195,0.189l200.836,7.68
						c12.221,0.47,22.885-8.628,24.244-20.714c1.874-16.633,2.431-49.068-5.557-109.12c-0.989-7.424-1.611-18.886-2.383-34.271
						c-0.041-0.82,0.373-1.594,1.078-2.016c0.705-0.421,1.585-0.418,2.285,0.004c43.473,26.168,115.725,41.188,213.686-34.854
						l-126.367-97.497c-4.217,5.557-17.689,21.081-37.909,23.108c-13.76,1.401-32.289-15.122-51.897-32.601
						c-10.189-9.081-20.723-18.472-30.131-24.736c-32.443-21.345-71.764-30.741-113.662-27.191
						c-0.059,0.006-0.117,0.009-0.176,0.009l-0.319,0.037c-7.368,0.646-14.877,1.741-22.377,3.259
						c-56.145,9.4-189.281,39.583-214.488,116.924c-16.57,50.843,1.433,117.865,6.024,133.299l117.823-56.891l-8.686-26.126
						c-5.982-14.43-0.045-31.04,13.869-38.488l18.685-10.003c0.622-0.334,1.37-0.351,2.012-0.041c0.638,0.308,1.091,0.902,1.219,1.6
						c4.374,23.923,7.865,48.972,3.832,70.098c-7.004,36.706-14.617,62.184-21.334,84.661c-7.518,25.161-14.042,46.999-18.496,78.75
						C598.972,1441.656,617.405,1438.125,633.708,1438.125z"/>
				</g>
				<g>
					<path style="fill:#FFFFFF;" d="M594.637,1319.364l36.182,56.321l16.208-10.99c9.914-6.722,22.064-9.301,33.854-7.184
						c0,0,17.43,2.314,24.868,8.317c17.944,14.481,2.037,23.492-1.399,25.31c-5.533,2.927-13.209,5.651-21.395,4.48
						c-4.782-0.684-17.373,0.947-28.747,7.124c-8.604,4.673-18.659,14.217-32.318,10.514c-11.671-3.164-16.806-10.049-16.806-10.049
						l-46.744-58.289L594.637,1319.364z"/>
					<path d="M628.034,1416.31c-2.149,0.002-4.389-0.275-6.726-0.911c-12.268-3.326-17.776-10.555-18.006-10.863l-46.695-58.226
						c-0.384-0.479-0.553-1.095-0.466-1.702c0.087-0.607,0.418-1.151,0.919-1.503l36.298-25.556c0.497-0.351,1.11-0.479,1.706-0.364
						c0.594,0.117,1.115,0.471,1.442,0.98l34.949,54.406l14.324-9.714c10.456-7.088,23.063-9.764,35.494-7.531
						c0.638,0.082,18.036,2.452,25.87,8.775c6.581,5.313,9.664,10.653,9.159,15.875c-0.479,4.994-4.356,9.656-10.915,13.127
						c-5.406,2.86-13.741,5.995-22.748,4.716c-4.057-0.588-16.252,0.837-27.371,6.876c-1.676,0.911-3.435,2.027-5.295,3.211
						C643.956,1411.732,636.759,1416.31,628.034,1416.31z M561.55,1345.375l45.264,56.444c0.089,0.117,4.953,6.394,15.655,9.296
						c9.957,2.697,18.008-2.431,25.12-6.956c1.928-1.225,3.747-2.383,5.557-3.367c11.746-6.377,24.687-8.155,30.12-7.37
						c7.819,1.119,15.215-1.689,20.042-4.244c3.01-1.594,8.125-4.961,8.574-9.627c0.351-3.643-2.181-7.678-7.529-11.993
						c-6.876-5.549-23.598-7.823-23.767-7.845c-11.379-2.047-22.826,0.386-32.315,6.822l-16.208,10.991
						c-0.499,0.334-1.108,0.455-1.691,0.336c-0.588-0.119-1.099-0.47-1.425-0.976l-34.928-54.373L561.55,1345.375z"/>
				</g>
				<g>
					<path style="fill:#FFFFFF;" d="M594.079,1288.771l14.904,27.511l-88.088,70.257c0,0-16.036-30.839-20.97-52.514
						L594.079,1288.771z"/>
					<path d="M520.894,1388.759c-0.154,0-0.308-0.015-0.46-0.048c-0.651-0.139-1.203-0.559-1.511-1.149
						c-0.659-1.268-16.221-31.339-21.163-53.044c-0.232-1.01,0.269-2.045,1.201-2.494l94.156-45.253
						c1.067-0.52,2.353-0.098,2.914,0.943l14.903,27.51c0.514,0.945,0.273,2.123-0.566,2.795l-88.091,70.256
						C521.883,1388.592,521.393,1388.759,520.894,1388.759z M502.5,1335.251c4.358,17.501,15.443,40.446,19.142,47.851
						l84.502-67.396l-13.01-24.014L502.5,1335.251z"/>
				</g>
				<path d="M859.418,1286.109c-1.158,0-2.134-0.898-2.214-2.069c-0.388-5.69-0.822-11.902-1.275-18.346
					c-1.26-17.995-2.689-38.393-3.515-53.651c-0.065-1.223,0.874-2.27,2.099-2.337c1.197-0.074,2.27,0.874,2.337,2.099
					c0.822,15.222,2.249,35.6,3.508,53.58c0.453,6.447,0.889,12.663,1.277,18.353c0.082,1.225-0.841,2.283-2.064,2.368
					C859.52,1286.107,859.468,1286.109,859.418,1286.109z"/>
			</g>
			<g>
				<g>
					<path style="fill:#FFFFFF;" d="M772.188,1030.112l-7.802,64.839l36.077,16.042c0,0-53.385,36.285-123.684-3.936l37.946-16.209
						l19.567-75.243L772.188,1030.112z"/>
					<path d="M743.654,1128.104c-19.461,0.002-42.701-4.658-67.98-19.118c-0.731-0.418-1.162-1.214-1.112-2.056
						c0.048-0.841,0.568-1.583,1.344-1.915l36.942-15.781l19.294-74.188c0.158-0.611,0.57-1.125,1.132-1.414
						c0.566-0.291,1.223-0.327,1.81-0.1l37.896,14.506c0.952,0.364,1.533,1.327,1.412,2.338l-7.607,63.212l34.579,15.376
						c0.737,0.327,1.238,1.03,1.31,1.832c0.071,0.802-0.297,1.581-0.963,2.034C801.361,1113.069,778.612,1128.102,743.654,1128.104z
						 M681.826,1107.317c56.238,30.136,101.084,10.774,113.779,3.948l-32.122-14.285c-0.891-0.397-1.418-1.327-1.303-2.294
						l7.596-63.118l-33.961-12.999l-18.943,72.839c-0.174,0.666-0.644,1.212-1.277,1.483L681.826,1107.317z"/>
				</g>
				<g>
					<path style="fill:#FFFFFF;" d="M733.42,1033.767c0,0-14.482,5.464-18.301-7.119c-3.819-12.583,8.666-11.792,8.666-11.792
						s-13.292-27.58,7.376-30.265c20.668-2.685,35.761-10.329,35.761-10.329s15.024,26.309,19.849,48.362
						c2.91,13.3,2.111,25.052-7.93,28.552C751.353,1060.757,733.42,1033.767,733.42,1033.767z"/>
					<path d="M767.177,1055.441c-18.422,0-31.085-14.524-34.611-19.09c-2.676,0.711-8.142,1.67-12.834-0.646
						c-3.266-1.609-5.531-4.439-6.737-8.413c-1.383-4.556-1.023-8.205,1.065-10.844c1.765-2.229,4.384-3.168,6.481-3.556
						c-1.995-5.159-5.28-15.968-1.281-23.355c2.179-4.024,6.086-6.429,11.616-7.147c20.014-2.6,34.897-10.033,35.045-10.109
						c1.052-0.529,2.344-0.148,2.929,0.88c0.62,1.086,15.25,26.859,20.09,48.989c3.76,17.176,0.607,27.646-9.367,31.122
						C775.206,1054.795,771.062,1055.441,767.177,1055.441z M733.416,1031.548c0.726,0,1.431,0.356,1.852,0.987
						c0.696,1.043,17.338,25.426,42.842,16.545c7.507-2.617,9.69-11.358,6.492-25.979c-3.981-18.199-15.207-39.676-18.615-45.941
						c-4.76,2.149-17.778,7.457-34.54,9.632c-4.092,0.533-6.802,2.123-8.283,4.859c-3.515,6.492,0.703,18.255,2.622,22.241
						c0.343,0.711,0.284,1.55-0.158,2.205c-0.44,0.653-1.149,1.008-1.982,0.976c-1.151-0.074-4.577,0.189-6.112,2.145
						c-1.123,1.429-1.221,3.712-0.288,6.787c0.844,2.782,2.294,4.649,4.432,5.709c4.619,2.283,10.9-0.004,10.965-0.026
						C732.893,1031.594,733.155,1031.548,733.416,1031.548z"/>
				</g>
			</g>
		</g>
		<g>
			<g>
				<g>
					<path d="M765.173,583.987c-0.573,0-1.145-0.219-1.579-0.659l-6.433-6.507c-0.863-0.872-0.854-2.279,0.017-3.14
						c0.874-0.861,2.279-0.857,3.14,0.017l6.433,6.507c0.863,0.872,0.854,2.279-0.017,3.14
						C766.301,583.772,765.737,583.987,765.173,583.987z"/>
					<path d="M795.985,615.159c-0.572,0-1.145-0.221-1.579-0.659l-6.433-6.509c-0.863-0.872-0.854-2.279,0.017-3.14
						c0.874-0.865,2.279-0.852,3.14,0.017l6.433,6.509c0.863,0.872,0.854,2.279-0.017,3.14
						C797.113,614.946,796.549,615.159,795.985,615.159z"/>
					<path d="M758.74,615.159c-0.564,0-1.128-0.212-1.561-0.642c-0.872-0.861-0.88-2.268-0.017-3.14l6.433-6.509
						c0.861-0.87,2.266-0.883,3.14-0.017c0.872,0.861,0.88,2.268,0.017,3.14l-6.433,6.509
						C759.885,614.938,759.312,615.159,758.74,615.159z"/>
					<path d="M789.552,583.987c-0.564,0-1.128-0.212-1.561-0.642c-0.872-0.861-0.88-2.268-0.017-3.14l6.433-6.507
						c0.861-0.874,2.266-0.883,3.14-0.017c0.872,0.861,0.88,2.268,0.017,3.14l-6.433,6.507
						C790.697,583.768,790.124,583.987,789.552,583.987z"/>
				</g>
			</g>
			<g>
				<g>
					<path d="M918.315,809.75c-0.004,0-0.009,0-0.013,0c-1.225-0.007-2.214-1.006-2.207-2.233l0.052-9.15
						c0.007-1.221,1-2.207,2.22-2.207c0.004,0,0.009,0,0.013,0c1.225,0.006,2.214,1.006,2.207,2.233l-0.052,9.15
						C920.528,808.764,919.535,809.75,918.315,809.75z"/>
					<path d="M918.061,853.581c-0.004,0-0.009,0-0.013,0c-1.225-0.006-2.214-1.006-2.207-2.233l0.052-9.153
						c0.006-1.221,1-2.207,2.22-2.207c0.004,0,0.009,0,0.013,0c1.225,0.007,2.214,1.006,2.207,2.233l-0.052,9.153
						C920.275,852.595,919.282,853.581,918.061,853.581z"/>
					<path d="M891.722,827.242c-1.221,0-2.214-0.987-2.22-2.207c-0.006-1.227,0.982-2.227,2.207-2.233l9.153-0.052
						c0.004,0,0.009,0,0.013,0c1.221,0,2.214,0.987,2.22,2.207c0.006,1.227-0.982,2.227-2.207,2.233l-9.153,0.052
						C891.731,827.242,891.726,827.242,891.722,827.242z"/>
					<path d="M935.553,826.989c-1.221,0-2.214-0.987-2.22-2.207c-0.007-1.227,0.982-2.227,2.207-2.233l9.152-0.052
						c1.214,0.063,2.225,0.982,2.233,2.207c0.007,1.227-0.982,2.227-2.207,2.233l-9.153,0.052
						C935.562,826.989,935.557,826.989,935.553,826.989z"/>
				</g>
			</g>
			<path d="M641.911,650.75c-9.029,0-16.373-7.344-16.373-16.373c0-9.027,7.344-16.371,16.373-16.371
				c9.027,0,16.371,7.344,16.371,16.371C658.282,643.406,650.938,650.75,641.911,650.75z M641.911,622.446
				c-6.579,0-11.932,5.352-11.932,11.93c0,6.579,5.354,11.932,11.932,11.932c6.579,0,11.93-5.354,11.93-11.932
				C653.842,627.798,648.49,622.446,641.911,622.446z"/>
		</g>
	</g>
</g>
</svg>
