<svg xmlns="http://www.w3.org/2000/svg" width="234.88" height="153.03" viewBox="0 0 234.88 153.03" role="img">
<title></title>
<path d="M210.12,1.5H25.64a6.88,6.88,0,0,0-6.89,6.89h0V132.53a6.88,6.88,0,0,0,6.88,6.9H210.12a6.9,6.9,0,0,0,6.9-6.9V8.4A6.9,6.9,0,0,0,210.12,1.5Zm-2.18,129.31H27.8V10.12H207.94Z" fill="#0a0c0e" stroke="#070e15" stroke-linecap="round" stroke-linejoin="round" stroke-width="3"/><path d="M1.5,139.43v5.17l4.91,2A69,69,0,0,0,32,151.53H202.85a69,69,0,0,0,25.62-4.93l4.91-2v-5.17H18.75" fill="none" stroke="#0a0c0e" stroke-linecap="round" stroke-linejoin="round" stroke-width="3"/><path d="M86,139.43h6a8.64,8.64,0,0,1,6.9,3.45h0a8.62,8.62,0,0,0,6.89,3.45h24.16a8.64,8.64,0,0,0,6.9-3.45h0a8.64,8.64,0,0,1,6.9-3.45h6" fill="none" stroke="#0a0c0e" stroke-linecap="round" stroke-linejoin="round" stroke-width="3"/><rect x="27.8" y="10.12" width="180.17" height="120.69" stroke-width="3" stroke="#0a0c0e" stroke-linecap="round" stroke-linejoin="round" fill="none"/><line x1="233.38" y1="151.5" x2="1.5" y2="151.5" fill="none" stroke="#0a0c0e" stroke-linecap="round" stroke-linejoin="round" stroke-width="3"/><path d="M128.66,22.19a5.16,5.16,0,0,1,5.17,5.17V39.48a5.16,5.16,0,0,1-5.15,5.17H45a5.16,5.16,0,0,1-5.17-5.15V27.36A5.16,5.16,0,0,1,45,22.19h72.4" fill="none" stroke="#0a0c0e" stroke-linecap="round" stroke-linejoin="round" stroke-width="3"/><rect x="39.87" y="96.28" width="93.97" height="22.47" rx="5.17" stroke-width="3" stroke="#0a0c0e" stroke-linecap="round" stroke-linejoin="round" fill="none"/><path d="M154.75,88.59H45a5.16,5.16,0,0,1-5.17-5.15V57.51A5.16,5.16,0,0,1,45,52.34H156.25a5.16,5.16,0,0,1,5.17,5.17V81.32l-6.91-2.08-1.37,1.52Z" fill="#000000" stroke="#000000" stroke-linecap="round" stroke-linejoin="round" stroke-width="3"/><path d="M173.94,85.06,155.39,79.5a1.73,1.73,0,0,0-2.15,1.17,1.81,1.81,0,0,0,0,1l5.57,18.55a1.72,1.72,0,0,0,2.87.72l4.06-4,8.53,8.53a1.73,1.73,0,0,0,2.44,0l2.44-2.44a1.73,1.73,0,0,0,0-2.44L170.58,92l4.06-4.06a1.74,1.74,0,0,0,0-2.45A1.68,1.68,0,0,0,173.94,85.06Z" fill="none" stroke="#0a0c0e" stroke-linecap="round" stroke-linejoin="round" stroke-width="3"/><path d="M170.13,71.78l1.93-3.85" fill="none" stroke="#0a0c0e" stroke-linecap="round" stroke-linejoin="round" stroke-width="3"/><path d="M147.25,72.48l-1.93-2.64" fill="none" stroke="#0a0c0e" stroke-linecap="round" stroke-linejoin="round" stroke-width="3"/><line x1="81.25" y1="70.47" x2="130.38" y2="70.47" fill="none" stroke="#fff" stroke-linecap="round" stroke-linejoin="round" stroke-width="3"/><circle cx="58.83" cy="70.47" r="8.62" fill="none" stroke="#fff" stroke-linecap="round" stroke-linejoin="round" stroke-width="3"/></svg>