<svg xmlns="http://www.w3.org/2000/svg" width="175.3" height="193" viewBox="0 0 175.3 193" role="img">
<title></title>
<path d="M7.15,30.72l70-14.29a4,4,0,0,1,4.68,3.09l.33,1.61L79.45,7.85a7.94,7.94,0,0,0-9.37-6.19h0L7.85,14.37a8,8,0,0,0-6.2,9.37L4,35.4A4,4,0,0,1,7.15,30.72Z" fill="#070e15" stroke="#070e15" stroke-linecap="round" stroke-linejoin="round" stroke-width="3"/><path d="M108.57,150.48l-.79-3.89a4,4,0,0,1-3.1,4.68l-70,14.3A4,4,0,0,1,30,162.49l.79,3.87a7.94,7.94,0,0,0,9.36,6.2l62.24-12.71A7.94,7.94,0,0,0,108.57,150.48Z" fill="#070e15" stroke="#070e15" stroke-linecap="round" stroke-linejoin="round" stroke-width="3"/><path d="M30,162.48h0L7,49.7" fill="#fff" stroke="#070e15" stroke-linecap="round" stroke-linejoin="round" stroke-width="3"/><line x1="99.36" y1="105.38" x2="107.78" y2="146.59" fill="none" stroke="#070e15" stroke-linecap="round" stroke-linejoin="round" stroke-width="3"/><line x1="82.16" y1="21.13" x2="89.89" y2="58.96" fill="none" stroke="#070e15" stroke-linecap="round" stroke-linejoin="round" stroke-width="3"/><circle cx="62.99" cy="126.88" r="13.93" fill="#000000" stroke="#000000" stroke-linecap="round" stroke-linejoin="round" stroke-width="3"/><path d="M66.61,123.21c5.13,0,5.11,2.79,5,4.1a.66.66,0,0,1-.54.58l-3,.43H68a.7.7,0,0,1-.66-.56c-.27-1.22-.66-1.94-2.33-1.94a12.4,12.4,0,0,0-2.1.24c-3.51.67-3.77,1.57-3.51,3.21a.68.68,0,0,1-.48.79l-3,.69h-.14a.63.63,0,0,1-.57-.35c-.77-1.42-2.15-5,7.2-6.75a23.11,23.11,0,0,1,4.23-.46m0-3a27.52,27.52,0,0,0-4.79.51c-5.32,1-8.39,2.71-9.64,5.36a6.12,6.12,0,0,0,.36,5.77,3.66,3.66,0,0,0,3.21,1.92,3.84,3.84,0,0,0,.83-.09l2.95-.69a3.67,3.67,0,0,0,2.81-3.73c.25-.07.59-.15,1.06-.24s.81-.14,1.07-.17A3.65,3.65,0,0,0,68,131.31a2.26,2.26,0,0,0,.52,0l3-.44a3.64,3.64,0,0,0,3.09-3.18,6.27,6.27,0,0,0-1.4-5.11c-1.38-1.56-3.58-2.35-6.53-2.35Z" fill="snow"/><line x1="32.77" y1="17.38" x2="48.33" y2="14.21" fill="none" stroke="#fff" stroke-linecap="round" stroke-linejoin="round" stroke-width="3"/><polygon points="64.71 74.04 64.53 73.08 64.53 73.08 64.71 74.04" fill="none"/><path d="M65.06,44.54c-2.31-.53-4.59-1.22-7-1.65a23,23,0,0,0-18.37,4.8l-.44.31a16.35,16.35,0,0,0-5.71,9.19v.09a16.6,16.6,0,0,0,1.33,11.13l.56,1.11,1.5-.4-.48-1.82a9.85,9.85,0,0,1,2-8.82,9.27,9.27,0,0,1,1.47-1.4l1.58-1.24a18.23,18.23,0,0,0,16.44,3.68l.6-.16,3-.77.59,2.22.34,1.29.26,1a3.9,3.9,0,0,1,4.76,2.76h0l.6,2.26a3.9,3.9,0,0,1-2.76,4.76l-.75.2.18,1v.12L65,75.42l.75-.2A13.39,13.39,0,0,0,72.12,60.1L72,59.6A18.35,18.35,0,0,0,72.9,52,85.34,85.34,0,0,0,65.06,44.54Z" fill="#000000" stroke="#000000" stroke-linecap="round" stroke-linejoin="round" stroke-width="3"/><path d="M63.32,83.91a9.33,9.33,0,0,0,1.92-7" fill="#fff" stroke="#070e15" stroke-linecap="round" stroke-linejoin="round" stroke-width="3"/><path d="M59.83,88.33a6.18,6.18,0,0,1-3.29,2.17l-.5.13a6.16,6.16,0,0,1-3.93-.24l-5.22-2.11a9.34,9.34,0,0,1-5.16-5.16l-1.27-3.64" fill="none" stroke="#070e15" stroke-linecap="round" stroke-linejoin="round" stroke-width="3"/><path d="M38.47,53.19l-.1-.1a5.61,5.61,0,0,1-1-6.87h0" fill="none" stroke="#070e15" stroke-linecap="round" stroke-linejoin="round" stroke-width="3"/><path d="M37.15,69.9h0a3.9,3.9,0,0,0-2.76,4.76h0l.6,2.26a3.9,3.9,0,0,0,4.76,2.76l.75-.2" fill="none" stroke="#070e15" stroke-linecap="round" stroke-linejoin="round" stroke-width="3"/><path d="M55.15,48.08a10,10,0,0,0-11.87,4.6l-.2.36,2.21-.59A13.32,13.32,0,0,1,55.36,53.8h0a13.31,13.31,0,0,0,10.08,1.35h0" fill="none" stroke="#070e15" stroke-linecap="round" stroke-linejoin="round" stroke-width="3"/><path d="M49.81,82.06a7.84,7.84,0,0,0,7.5-1.7" fill="none" stroke="#070e15" stroke-linecap="round" stroke-linejoin="round" stroke-width="3"/><path d="M43.86,69.59l.18.85" fill="none" stroke="#070e15" stroke-linecap="round" stroke-linejoin="round" stroke-width="3"/><path d="M57.31,66.52l.26,1.06" fill="none" stroke="#070e15" stroke-linecap="round" stroke-linejoin="round" stroke-width="3"/><path d="M49.61,72.13l-.39,3.33a3.18,3.18,0,0,0,3.77.82" fill="none" stroke="#070e15" stroke-linecap="round" stroke-linejoin="round" stroke-width="3"/><circle cx="51.21" cy="68.77" r="28.63" fill="none" stroke="#070e15" stroke-linecap="round" stroke-linejoin="round" stroke-width="3"/><path d="M161.64,53.18a41.7,41.7,0,0,1,5.56,6.24,33.37,33.37,0,0,1,6.6,19.88c-.25,14.24-11.8,26.85-25.56,30.54s-29.07.33-40.56-8.1c-9.21,6.18-21,5.6-30.06-.81,7.58.5,14.4-2.72,17.69-9.57h0C83,75.16,86.38,64.58,92.48,55.58s16.43-14.75,27.21-16.22,21.89,1.15,31.43,6.36" fill="none" stroke="#070e15" stroke-linecap="round" stroke-linejoin="round" stroke-width="3"/><path d="M19.59,173.78l-5.19,2.6" fill="none" stroke="#070e15" stroke-linecap="round" stroke-linejoin="round" stroke-width="3"/><path d="M35.15,183.29l-.43,8.21" fill="none" stroke="#070e15" stroke-linecap="round" stroke-linejoin="round" stroke-width="3"/><path d="M126.06,75.62l-9.91-2.45-2.38,9.58L110,81.81l5.37-21.68,3.8.94L117,69.68l9.88,2.45L129,63.52l3.8.94-5.38,21.68-3.79-.94Z" fill="#070e15" stroke="#070e15" stroke-linecap="round" stroke-linejoin="round"/><path d="M138.48,66.14a2.17,2.17,0,0,1,3.26,2.44,2,2,0,0,1-2.29,1.66,1.32,1.32,0,0,1-.33-.08,2,2,0,0,1-1.68-2.28,2.25,2.25,0,0,1,.09-.35A2.2,2.2,0,0,1,138.48,66.14Zm-2,22.24-3.61-.9,3.63-14.77,3.62.87Z" fill="#070e15" stroke="#070e15" stroke-linecap="round" stroke-linejoin="round"/><path d="M145.41,74.15,147,68l3.92,1-1.54,6.2-3,7.87-1.88-.52Zm-2.66,11.91a2.39,2.39,0,0,1,1.85-.22,2.3,2.3,0,0,1,1.52,1,2.62,2.62,0,0,1-.83,3.37,2.28,2.28,0,0,1-1.84.21,2.32,2.32,0,0,1-1.53-1,2.62,2.62,0,0,1,.83-3.37Z" fill="#070e15" stroke="#070e15" stroke-linecap="round" stroke-linejoin="round"/><path d="M93.63,26.44,95.07,19" fill="none" stroke="#070e15" stroke-linecap="round" stroke-linejoin="round" stroke-width="3"/><path d="M106.84,30.46l6.31-4.32" fill="none" stroke="#070e15" stroke-linecap="round" stroke-linejoin="round" stroke-width="3"/></svg>