<?xml version="1.0" standalone="no"?>
<svg xmlns:xlink="http://www.w3.org/1999/xlink" id="wave" style="transform:rotate(0deg); transition: 0.3s" viewBox="0 0 1440 190" version="1.1" xmlns="http://www.w3.org/2000/svg"><defs><linearGradient id="sw-gradient-0" x1="0" x2="0" y1="1" y2="0"><stop stop-color="#f5f5fc" offset="0%"/><stop stop-color="#f5f5fc" offset="100%"/></linearGradient></defs><path style="transform:translate(0, 0px); opacity:1" fill="url(#sw-gradient-0)" d="M0,133L60,120.3C120,108,240,82,360,82.3C480,82,600,108,720,98.2C840,89,960,44,1080,22.2C1200,0,1320,0,1440,12.7C1560,25,1680,51,1800,57C1920,63,2040,51,2160,50.7C2280,51,2400,63,2520,79.2C2640,95,2760,114,2880,126.7C3000,139,3120,146,3240,123.5C3360,101,3480,51,3600,25.3C3720,0,3840,0,3960,3.2C4080,6,4200,13,4320,34.8C4440,57,4560,95,4680,95C4800,95,4920,57,5040,50.7C5160,44,5280,70,5400,72.8C5520,76,5640,57,5760,47.5C5880,38,6000,38,6120,38C6240,38,6360,38,6480,38C6600,38,6720,38,6840,31.7C6960,25,7080,13,7200,28.5C7320,44,7440,89,7560,117.2C7680,146,7800,158,7920,164.7C8040,171,8160,171,8280,145.7C8400,120,8520,70,8580,44.3L8640,19L8640,190L8580,190C8520,190,8400,190,8280,190C8160,190,8040,190,7920,190C7800,190,7680,190,7560,190C7440,190,7320,190,7200,190C7080,190,6960,190,6840,190C6720,190,6600,190,6480,190C6360,190,6240,190,6120,190C6000,190,5880,190,5760,190C5640,190,5520,190,5400,190C5280,190,5160,190,5040,190C4920,190,4800,190,4680,190C4560,190,4440,190,4320,190C4200,190,4080,190,3960,190C3840,190,3720,190,3600,190C3480,190,3360,190,3240,190C3120,190,3000,190,2880,190C2760,190,2640,190,2520,190C2400,190,2280,190,2160,190C2040,190,1920,190,1800,190C1680,190,1560,190,1440,190C1320,190,1200,190,1080,190C960,190,840,190,720,190C600,190,480,190,360,190C240,190,120,190,60,190L0,190Z"/></svg>